<svg xmlns="http://www.w3.org/2000/svg" xmlns:xlink="http://www.w3.org/1999/xlink" enable-background="new 0 0 32 32" viewBox="0 0 32 32"><defs><linearGradient id="a"><stop offset="0" stop-color="#000092"/><stop offset="1" stop-color="#ff00f3"/></linearGradient><linearGradient id="b" x1="6" x2="23" y1="16" y2="16" gradientUnits="userSpaceOnUse" xlink:href="#a"/></defs><path fill="url(#b)" d="M 11.5 3 C 10.673 3 10 3.673 10 4.5 L 10 9 L 7.5 9 C 6.673 9 6 9.673 6 10.5 L 6 14.792969 C 6 16.643969 7.109125 18.283703 8.828125 18.970703 L 10.685547 19.712891 C 10.876547 19.788891 11 19.972734 11 20.177734 L 11 22.5 C 11 23.327 11.673 24 12.5 24 L 13.5 24 L 13.5 25.5 C 13.5 25.776 13.724 26 14 26 L 14.5 26 L 14.5 28.5 C 14.5 28.776 14.724 29 15 29 L 17 29 C 17.276 29 17.5 28.776 17.5 28.5 L 17.5 26 L 18 26 C 18.276 26 18.5 25.776 18.5 25.5 L 18.5 24 L 19.5 24 C 20.327 24 21 23.327 21 22.5 L 21 20.177734 C 21 19.971734 21.124453 19.788891 21.314453 19.712891 L 23.171875 18.970703 C 24.890875 18.283703 26 16.643969 26 14.792969 L 26 10.5 C 26 9.673 25.327 9 24.5 9 L 22 9 L 22 4.5 C 22 3.673 21.327 3 20.5 3 C 19.673 3 19 3.673 19 4.5 L 19 9 L 13 9 L 13 4.5 C 13 3.673 12.327 3 11.5 3 z M 11.5 4 C 11.776 4 12 4.224 12 4.5 L 12 9 L 11 9 L 11 4.5 C 11 4.224 11.224 4 11.5 4 z M 20.5 4 C 20.776 4 21 4.224 21 4.5 L 21 9 L 20 9 L 20 4.5 C 20 4.224 20.224 4 20.5 4 z M 7.5 10 L 10.5 10 L 12.5 10 L 19.5 10 L 21.5 10 L 24.5 10 C 24.776 10 25 10.224 25 10.5 L 25 14.792969 C 25 16.231969 24.136781 17.507969 22.800781 18.042969 L 20.943359 18.785156 C 20.370359 19.014156 20 19.560734 20 20.177734 L 20 22.5 C 20 22.776 19.776 23 19.5 23 L 18 23 L 14 23 L 12.5 23 C 12.224 23 12 22.776 12 22.5 L 12 20.177734 C 12 19.560734 11.629641 19.012203 11.056641 18.783203 L 9.1992188 18.042969 C 7.8632188 17.508969 7 16.232969 7 14.792969 L 7 10.5 C 7 10.224 7.224 10 7.5 10 z M 14.912109 11.960938 C 14.842734 11.964688 14.774938 11.983625 14.710938 12.015625 C 14.584938 12.080625 14.491078 12.195031 14.455078 12.332031 L 13.308594 16.712891 C 13.244594 16.959891 13.375281 17.215641 13.613281 17.306641 L 15.013672 17.84375 L 13.939453 20.644531 C 13.853453 20.868531 13.938578 21.121047 14.142578 21.248047 C 14.224578 21.299047 14.31525 21.324219 14.40625 21.324219 C 14.54125 21.324219 14.676438 21.269063 14.773438 21.164062 L 18.431641 17.212891 C 18.544641 17.090891 18.590734 16.920766 18.552734 16.759766 C 18.514734 16.598766 18.399141 16.464297 18.244141 16.404297 L 17.394531 16.078125 L 18.636719 13.966797 C 18.710719 13.840797 18.725734 13.686828 18.677734 13.548828 C 18.629734 13.410828 18.523719 13.298094 18.386719 13.246094 L 15.117188 11.992188 C 15.050688 11.967187 14.981484 11.957187 14.912109 11.960938 z M 15.28125 13.126953 L 17.476562 13.96875 L 16.234375 16.082031 C 16.160375 16.208031 16.145359 16.362 16.193359 16.5 C 16.242359 16.639 16.349328 16.749734 16.486328 16.802734 L 17.197266 17.074219 L 15.802734 18.580078 L 16.126953 17.736328 C 16.173953 17.612328 16.171187 17.474516 16.117188 17.353516 C 16.063188 17.232516 15.962844 17.136844 15.839844 17.089844 L 14.390625 16.533203 L 15.28125 13.126953 z M 14.5 24 L 17.5 24 L 17.5 25 L 17 25 L 15 25 L 14.5 25 L 14.5 24 z M 15.5 26 L 16.5 26 L 16.5 28 L 15.5 28 L 15.5 26 z "/></svg>