<svg xmlns="http://www.w3.org/2000/svg" data-name="Layer 1" viewBox="0 0 512 512"><path fill="#18171c" d="M276.73242,151.55127l28.13965-70.81689a11.49981,11.49981,0,0,0-18.77734-12.41993l-87.49805,86.61573A11.49855,11.49855,0,0,0,199.127,171.77l-.001-.00049,33.03418,28.81836-30.88379,72.42627a11.49507,11.49507,0,0,0,18.09082,13.21875l93.47949-80.63281a11.5,11.5,0,0,0,.6709-16.78711ZM220.99121,265.023l25.96484-60.89063a11.47463,11.47463,0,0,0-3.01855-13.17675l-32.11328-28.01416L284.751,90.751l-22.80371,57.3872a11.503,11.503,0,0,0,2.50488,12.32471l35.76172,36.22461Zm115.40918,67.56641a175.997,175.997,0,1,0-161.15527-.17725,45.2933,45.2933,0,0,1,15.4873,13.09991,25.03073,25.03073,0,0,0-22.71191,24.89081v3.06494a24.91416,24.91416,0,0,0,7.16894,17.5,24.91418,24.91418,0,0,0-7.16894,17.5v3.06446a24.91418,24.91418,0,0,0,7.16894,17.5,24.91416,24.91416,0,0,0-7.16894,17.5v3.06445a25.02817,25.02817,0,0,0,25,25h12.33374l4.47192,12.51367A37.57136,37.57136,0,0,0,245.13965,512h21.7207a37.57075,37.57075,0,0,0,35.3125-24.88623l4.47315-12.51709h12.33349a25.02817,25.02817,0,0,0,25-25v-3.06445a24.91416,24.91416,0,0,0-7.16894-17.5,24.91418,24.91418,0,0,0,7.16894-17.5v-3.06446a24.91418,24.91418,0,0,0-7.16894-17.5,24.91416,24.91416,0,0,0,7.16894-17.5v-3.06494a25.02912,25.02912,0,0,0-22.87109-24.90295A44.50334,44.50334,0,0,1,336.40039,332.58936Zm-48.35351,149.48A22.54131,22.54131,0,0,1,266.86035,497h-21.7207a22.5419,22.5419,0,0,1-21.1875-14.93408l-2.66919-7.46924h69.43433Zm40.93261-32.47266a10.01146,10.01146,0,0,1-10,10h-125.959a10.01146,10.01146,0,0,1-10-10v-3.06445a10.01146,10.01146,0,0,1,10-10h125.959a10.01146,10.01146,0,0,1,10,10Zm0-38.06445a10.01146,10.01146,0,0,1-10,10h-125.959a10.01146,10.01146,0,0,1-10-10v-3.06446a10.01146,10.01146,0,0,1,10-10h125.959a10.01146,10.01146,0,0,1,10,10Zm0-41.1294v3.06494a10.01146,10.01146,0,0,1-10,10h-125.959a10.01146,10.01146,0,0,1-10-10v-3.06494a10.01146,10.01146,0,0,1,10-10h125.959A10.01146,10.01146,0,0,1,328.97949,370.40283Zm-25.36474-25H208.23584a59.997,59.997,0,0,0-26.09912-26.314,161.00473,161.00473,0,1,1,147.39941.16357A59.18407,59.18407,0,0,0,303.61475,345.40283Z"/></svg>