<svg xmlns="http://www.w3.org/2000/svg" data-name="Layer 1" viewBox="0 0 64 64"><path fill="#dfeaf8" d="M60,32A28.008,28.008,0,0,1,19.44,57.03a28.457,28.457,0,0,1-5.03-3.25A3.331,3.331,0,0,0,14.5,53,3.5,3.5,0,0,0,11,49.5a3.331,3.331,0,0,0-.78.09,26.649,26.649,0,0,1-2.28-3.28A28,28,0,0,1,44.56,6.97a28.457,28.457,0,0,1,5.03,3.25,3.331,3.331,0,0,0-.09.78A3.5,3.5,0,0,0,53,14.5a3.331,3.331,0,0,0,.78-.09,26.649,26.649,0,0,1,2.28,3.28A27.831,27.831,0,0,1,60,32Z"/><path fill="#d99899" d="M44,40H33.937a2,2,0,0,1-1.537-.72L23.6,28.72A2,2,0,0,0,22.063,28H17V24h7.063a2,2,0,0,1,1.537.72l8.8,10.56a2,2,0,0,0,1.537.72H44V34l5,4-5,4Z"/><circle cx="11" cy="53" r="9" fill="#aecef8"/><path fill="#748ca6" d="M61.548,13.119l-.524-.289a.836.836,0,0,1-.445-.841,6.924,6.924,0,0,0,0-1.978.836.836,0,0,1,.445-.841l.524-.289A.845.845,0,0,0,61.879,7.7l-1.45-2.4a.927.927,0,0,0-1.235-.316l-.53.292a.959.959,0,0,1-1.029-.084,7.685,7.685,0,0,0-1.692-.939.89.89,0,0,1-.589-.81V2.864A.885.885,0,0,0,54.45,2h-2.9a.885.885,0,0,0-.9.864v.579a.89.89,0,0,1-.589.81,7.685,7.685,0,0,0-1.692.939.959.959,0,0,1-1.029.084l-.53-.292a.927.927,0,0,0-1.235.316l-1.45,2.4a.845.845,0,0,0,.331,1.181l.524.289a.836.836,0,0,1,.445.841,6.924,6.924,0,0,0,0,1.978.836.836,0,0,1-.445.841l-.524.289a.845.845,0,0,0-.331,1.181l1.45,2.4a.927.927,0,0,0,1.235.316l.53-.292a.959.959,0,0,1,1.029.084,7.685,7.685,0,0,0,1.692.939.89.89,0,0,1,.589.81v.579a.885.885,0,0,0,.9.864h2.9a.885.885,0,0,0,.9-.864v-.579a.89.89,0,0,1,.589-.81,7.685,7.685,0,0,0,1.692-.939.959.959,0,0,1,1.029-.084l.53.292a.927.927,0,0,0,1.235-.316l1.45-2.4A.845.845,0,0,0,61.548,13.119ZM53,14.5A3.5,3.5,0,1,1,56.5,11,3.5,3.5,0,0,1,53,14.5Z"/><path fill="#8fccc0" d="M40,28H35.937a2,2,0,0,0-1.537.72L25.6,39.28a2,2,0,0,1-1.537.72H17V36h5.063a2,2,0,0,0,1.537-.72l8.8-10.56A2,2,0,0,1,33.937,24H40V22l5,4-5,4Z"/><circle cx="11" cy="57" r="1" fill="#404040"/><path fill="#404040" d="M11,50a5.92,5.92,0,0,1,4.832,2.449l1.615-1.178a7.989,7.989,0,0,0-12.894,0l1.615,1.178A5.92,5.92,0,0,1,11,50Z"/><path fill="#404040" d="M11,52a3.986,3.986,0,0,0-3.231,1.646l1.623,1.168a2.054,2.054,0,0,1,3.216,0l1.623-1.168A3.986,3.986,0,0,0,11,52Z"/><path fill="#404040" d="M11 63A10 10 0 1 0 1 53 10.011 10.011 0 0 0 11 63zm0-18a8 8 0 1 1-8 8A8.009 8.009 0 0 1 11 45zM43.062 13.394a1.82 1.82 0 0 0 .2 1.423l1.449 2.4a1.937 1.937 0 0 0 2.574.676l.485-.276a8.864 8.864 0 0 0 1.872 1.045v.475A1.887 1.887 0 0 0 51.551 21h2.9a1.887 1.887 0 0 0 1.905-1.864V18.66a7.1 7.1 0 0 0 1.827-1.06l.53.292a1.935 1.935 0 0 0 2.573-.675l1.451-2.4a1.817 1.817 0 0 0 .2-1.422 1.85 1.85 0 0 0-.906-1.15L61.586 12a7.813 7.813 0 0 0 0-2l.445-.246a1.85 1.85 0 0 0 .906-1.15 1.816 1.816 0 0 0-.2-1.423l-1.449-2.4a1.934 1.934 0 0 0-2.574-.676l-.485.276a8.864 8.864 0 0 0-1.872-1.045V2.864A1.887 1.887 0 0 0 54.449 1h-2.9a1.887 1.887 0 0 0-1.905 1.864V3.34A7.1 7.1 0 0 0 47.819 4.4l-.53-.292a1.935 1.935 0 0 0-2.573.675l-1.451 2.4a1.821 1.821 0 0 0-.2 1.422 1.855 1.855 0 0 0 .907 1.15l.445.246a7.813 7.813 0 0 0 0 2l-.445.246A1.855 1.855 0 0 0 43.062 13.394zM46.35 11a5.818 5.818 0 0 1 .062-.847 1.846 1.846 0 0 0-.953-1.859l-.4-.218 1.32-2.184.471.259A1.967 1.967 0 0 0 48.956 6a6.715 6.715 0 0 1 1.472-.818 1.882 1.882 0 0 0 1.218-1.738V3h2.708v.443a1.883 1.883 0 0 0 1.217 1.738A6.737 6.737 0 0 1 57.044 6a1.963 1.963 0 0 0 2.1.153l.471-.259 1.319 2.184-.395.218a1.843 1.843 0 0 0-.953 1.86A5.934 5.934 0 0 1 59.65 11a5.818 5.818 0 0 1-.062.847 1.846 1.846 0 0 0 .953 1.859l.4.218-1.319 2.184-.471-.259a1.964 1.964 0 0 0-2.1.152 6.715 6.715 0 0 1-1.472.818 1.882 1.882 0 0 0-1.218 1.738V19H51.646v-.443a1.883 1.883 0 0 0-1.217-1.738A6.737 6.737 0 0 1 48.956 16a1.963 1.963 0 0 0-2.1-.153l-.471.259-1.32-2.184.4-.218a1.843 1.843 0 0 0 .953-1.86A5.934 5.934 0 0 1 46.35 11z"/><path fill="#404040" d="M53 15.5A4.5 4.5 0 1 0 48.5 11 4.505 4.505 0 0 0 53 15.5zm0-7A2.5 2.5 0 1 1 50.5 11 2.5 2.5 0 0 1 53 8.5zM46.211 54.961c-.542.336-1.1.658-1.672.956l.931 1.771c.609-.32 1.213-.666 1.8-1.026zM58.012 24.737c.172.615.323 1.245.45 1.872l1.96-.4c-.136-.675-.3-1.352-.483-2.013zM60.952 30.314c-.039-.684-.1-1.376-.191-2.06l-1.984.255c.082.637.142 1.282.178 1.918zM53.335 48.551l1.58 1.226c.422-.544.83-1.108 1.21-1.678l-1.662-1.112C54.108 47.518 53.729 48.044 53.335 48.551zM55.477 45.347l1.737.99c.339-.6.662-1.212.96-1.835l-1.8-.863C56.093 44.218 55.792 44.793 55.477 45.347zM59.687 40.65l-1.909-.595c-.19.61-.405 1.221-.639 1.817L59 42.6C59.252 41.962 59.483 41.306 59.687 40.65zM47.81 53.889l1.172 1.62c.554-.4 1.1-.827 1.632-1.271L49.33 52.705C48.836 53.118 48.325 53.516 47.81 53.889zM27.722 58.663c-.632-.1-1.268-.226-1.891-.371l-.454 1.947c.668.157 1.352.29 2.03.4zM43.606 58.584l-.8-1.833c-.585.256-1.187.494-1.789.708l.669 1.885C42.332 59.114 42.978 58.859 43.606 58.584zM31.542 61l-.013-2c-.633-.012-1.27-.045-1.9-.1L29.46 60.89c.671.058 1.355.093 2 .1zM35.4 58.788c-.632.08-1.277.137-1.918.172l.107 2c.689-.037 1.382-.1 2.061-.185zM39.179 58.036c-.616.169-1.247.318-1.874.444l.391 1.961c.674-.134 1.351-.3 2.013-.477zM50.763 51.416l1.388 1.438c.491-.473.974-.974 1.436-1.489L52.1 50.028C51.669 50.508 51.219 50.975 50.763 51.416zM13.2 12.625L11.8 11.189c-.491.476-.973.978-1.433 1.492l1.49 1.334C12.291 13.536 12.739 13.068 13.2 12.625zM10.629 15.5L9.046 14.273c-.421.546-.828 1.112-1.206 1.681l1.665 1.108C9.857 16.532 10.236 16.005 10.629 15.5zM16.143 10.145L14.967 8.527c-.556.4-1.105.833-1.63 1.275l1.288 1.53C15.114 10.921 15.625 10.521 16.143 10.145zM8.495 18.7l-1.739-.987c-.34.6-.662 1.218-.957 1.837l1.806.86C7.879 19.837 8.179 19.262 8.495 18.7zM22.929 6.561l-.671-1.884c-.645.23-1.291.487-1.922.764l.8 1.831C21.728 7.014 22.33 6.775 22.929 6.561zM6.839 22.183l-1.863-.727c-.249.638-.478 1.3-.682 1.953L6.2 24C6.394 23.388 6.607 22.777 6.839 22.183zM30.457 5.043l-.113-2c-.688.039-1.381.1-2.059.19l.254 1.983C29.17 5.139 29.816 5.079 30.457 5.043zM19.409 8.11l-.934-1.769c-.606.32-1.209.667-1.793 1.031l1.058 1.7C18.284 8.73 18.845 8.408 19.409 8.11zM38.562 3.746c-.67-.154-1.353-.287-2.031-.393l-.31 1.976c.631.1 1.267.222 1.891.366zM5 31.528c.011-.626.043-1.254.1-1.864L3.108 29.49q-.086.985-.1 2.021l1 .061zM61 32.513l0-.133-2-.025 0 .116c-.012.64-.045 1.288-.1 1.925l1.992.174C60.947 33.887 60.983 33.193 61 32.513zM26.637 5.532l-.393-1.961c-.672.135-1.349.3-2.014.482l.535 1.926C25.383 5.808 26.013 5.658 26.637 5.532zM60.632 36.624l-1.974-.317c-.1.633-.227 1.269-.373 1.89l1.947.457C60.389 37.986 60.523 37.3 60.632 36.624zM5.7 25.86l-1.948-.453c-.155.667-.288 1.35-.4 2.031l1.976.312C5.433 27.116 5.557 26.48 5.7 25.86zM3.044 33.625c.038.686.1 1.379.187 2.06l1.984-.252c-.08-.634-.139-1.279-.174-1.918zM5.972 39.207c-.17-.615-.32-1.246-.446-1.874l-1.961.393c.136.675.3 1.353.479 2.014zM34.308 5.1l.17-1.994c-.651-.055-1.314-.089-1.973-.1h-.091l.057 2Q33.4 5.021 34.308 5.1zM16 28a1 1 0 0 0 1 1h5.062a1 1 0 0 1 .769.36L25.03 32l-2.2 2.639a1 1 0 0 1-.768.36H17a1 1 0 0 0-1 1v4a1 1 0 0 0 1 1h7.063a2.992 2.992 0 0 0 2.3-1.08L29 36.762l2.632 3.158a2.992 2.992 0 0 0 2.3 1.08H43v1a1 1 0 0 0 1.625.781l5-4a1 1 0 0 0 0-1.562l-5-4A1 1 0 0 0 43 34v1H35.937a1 1 0 0 1-.768-.36L32.97 32l2.2-2.639a1 1 0 0 1 .768-.36H39v1a1 1 0 0 0 1.625.781l5-4a1 1 0 0 0 0-1.562l-5-4A1 1 0 0 0 39 22v1H33.937a2.992 2.992 0 0 0-2.3 1.08L29 27.238 26.368 24.08a2.992 2.992 0 0 0-2.3-1.08H17a1 1 0 0 0-1 1zm17.632 7.92a2.994 2.994 0 0 0 2.3 1.08H44a1 1 0 0 0 1-.922L47.4 38 45 39.922A1 1 0 0 0 44 39H33.937a1 1 0 0 1-.768-.36L30.3 35.2l1.366-1.639zm-.463-10.56a1 1 0 0 1 .768-.36H40a1 1 0 0 0 1-.922L43.4 26 41 27.922A1 1 0 0 0 40 27H35.937a2.992 2.992 0 0 0-2.3 1.08l-8.8 10.56a1 1 0 0 1-.768.36H18V37h4.063a2.992 2.992 0 0 0 2.3-1.08zM18 25h6.063a1 1 0 0 1 .768.36L27.7 28.8l-1.366 1.639L24.368 28.08A2.994 2.994 0 0 0 22.062 27H18z"/></svg>