<svg xmlns="http://www.w3.org/2000/svg" data-name="Layer 1" viewBox="0 0 64 64"><path fill="#d3e3f8" d="M60,32A28.005,28.005,0,0,1,32,60a27.685,27.685,0,0,1-11.62-2.53,27.128,27.128,0,0,1-5.63-3.42A4.031,4.031,0,0,0,14.89,53,3.888,3.888,0,0,0,11,49.11a4.031,4.031,0,0,0-1.05.14,27.017,27.017,0,0,1-2.43-3.66A28,28,0,0,1,32,4,27.685,27.685,0,0,1,43.62,6.53a27.128,27.128,0,0,1,5.63,3.42A4.031,4.031,0,0,0,49.11,11,3.888,3.888,0,0,0,53,14.89a4.031,4.031,0,0,0,1.05-.14,27.017,27.017,0,0,1,2.43,3.66A27.881,27.881,0,0,1,60,32Z"/><path fill="#d96d73" d="M45,39H34.937a2,2,0,0,1-1.537-.72L24.6,27.72A2,2,0,0,0,23.063,27H18V23h7.063a2,2,0,0,1,1.537.72l8.8,10.56a2,2,0,0,0,1.537.72H45V33l5,4-5,4Z"/><polygon fill="#cc666c" points="29.024 26.628 26.357 29.828 28.31 32.172 30.976 28.971 29.024 26.628"/><polygon fill="#cc666c" points="33.643 32.171 31.69 29.828 29.024 33.029 30.976 35.372 33.643 32.171"/><circle cx="11" cy="53" r="10" fill="#628dc4"/><rect width="2" height="2" x="10" y="56" fill="#f2f2f2" rx="1"/><path fill="#f2f2f2" d="M15.832,52.449a5.991,5.991,0,0,0-9.664,0L4.553,51.271a7.989,7.989,0,0,1,12.894,0Z"/><path fill="#f2f2f2" d="M12.608,54.814a2.054,2.054,0,0,0-3.216,0L7.769,53.646a3.994,3.994,0,0,1,6.462,0Z"/><path fill="#62768c" d="M62.5,13.355l-.582-.321a.929.929,0,0,1-.495-.935,7.684,7.684,0,0,0,0-2.2.929.929,0,0,1,.495-.935l.582-.321a.937.937,0,0,0,.367-1.312L61.254,4.667a1.029,1.029,0,0,0-1.372-.352l-.588.325a1.068,1.068,0,0,1-1.145-.094A8.533,8.533,0,0,0,56.27,3.5a.987.987,0,0,1-.655-.9V1.96a.983.983,0,0,0-1-.96H51.389a.983.983,0,0,0-1,.96V2.6a.987.987,0,0,1-.655.9,8.533,8.533,0,0,0-1.879,1.043,1.068,1.068,0,0,1-1.145.094l-.588-.325a1.029,1.029,0,0,0-1.372.352L43.135,7.333A.937.937,0,0,0,43.5,8.645l.582.321a.929.929,0,0,1,.495.935,7.684,7.684,0,0,0,0,2.2.929.929,0,0,1-.495.935l-.582.321a.937.937,0,0,0-.367,1.312l1.611,2.666a1.029,1.029,0,0,0,1.372.352l.588-.325a1.068,1.068,0,0,1,1.145.094A8.533,8.533,0,0,0,49.73,18.5a.987.987,0,0,1,.655.9v.644a.983.983,0,0,0,1,.96h3.222a.983.983,0,0,0,1-.96V19.4a.987.987,0,0,1,.655-.9,8.533,8.533,0,0,0,1.879-1.043,1.068,1.068,0,0,1,1.145-.094l.588.325a1.029,1.029,0,0,0,1.372-.352l1.611-2.666A.937.937,0,0,0,62.5,13.355ZM53,14.889A3.889,3.889,0,1,1,56.889,11,3.889,3.889,0,0,1,53,14.889Z"/><path fill="#5479a8" d="M31.542,61l-.081,0c-.646-.011-1.33-.046-2-.1l.173-1.993c.626.054,1.263.087,1.9.1Zm2.051-.039-.107-2c.641-.035,1.286-.092,1.918-.172l.25,1.984C34.975,60.858,34.282,60.92,33.593,60.957Zm-6.186-.32c-.678-.108-1.362-.241-2.03-.4l.454-1.947c.623.145,1.259.27,1.891.371Zm10.289-.2-.391-1.961c.627-.126,1.258-.275,1.874-.444l.53,1.928C39.047,60.146,38.37,60.307,37.7,60.441Zm3.989-1.1-.669-1.885c.6-.214,1.2-.452,1.789-.708l.8,1.833C42.978,58.859,42.332,59.114,41.685,59.344Zm3.785-1.656-.931-1.771c.567-.3,1.13-.62,1.672-.956l1.054,1.7C46.683,57.022,46.079,57.368,45.47,57.688Zm3.512-2.179-1.172-1.62c.515-.373,1.026-.771,1.52-1.184l1.284,1.533C50.084,54.682,49.536,55.109,48.982,55.509Zm3.169-2.655-1.388-1.438c.456-.441.906-.908,1.337-1.388l1.487,1.337C53.125,51.88,52.642,52.381,52.151,52.854Zm2.764-3.077-1.58-1.226c.394-.507.773-1.033,1.128-1.564L56.125,48.1C55.745,48.669,55.337,49.233,54.915,49.777Zm2.3-3.44-1.737-.99c.315-.554.616-1.129.893-1.708l1.8.863C57.876,45.125,57.553,45.742,57.214,46.337ZM59,42.6l-1.862-.73c.234-.6.449-1.207.639-1.817l1.909.595C59.483,41.306,59.252,41.962,59,42.6ZM4.044,39.74c-.182-.661-.343-1.339-.479-2.014l1.961-.393c.126.628.276,1.259.446,1.874Zm56.188-1.086L58.285,38.2c.146-.621.271-1.257.373-1.89l1.974.317C60.523,37.3,60.389,37.986,60.232,38.654Zm-57-2.969c-.086-.681-.149-1.374-.187-2.06l2-.11c.035.639.094,1.284.174,1.918ZM60.887,34.57,58.9,34.4c.056-.637.089-1.285.1-1.925l0-.116,2,.025,0,.133C60.983,33.193,60.947,33.887,60.887,34.57ZM4,31.572l-1-.061q.018-1.035.1-2.021l1.993.174c-.054.61-.086,1.238-.1,1.864Zm54.952-1.145c-.036-.636-.1-1.281-.178-1.918l1.984-.255c.088.684.152,1.376.191,2.06ZM5.333,27.75l-1.976-.312c.108-.681.241-1.364.4-2.031L5.7,25.86C5.557,26.48,5.433,27.116,5.333,27.75Zm53.129-1.141c-.127-.627-.278-1.257-.45-1.872l1.927-.537c.184.661.347,1.338.483,2.013ZM6.2,24l-1.91-.592c.2-.658.433-1.315.682-1.953l1.863.727C6.607,22.777,6.394,23.388,6.2,24Zm1.4-3.587L5.8,19.554c.295-.619.617-1.238.957-1.837l1.739.987C8.179,19.262,7.879,19.837,7.605,20.414Zm1.9-3.352L7.84,15.954c.378-.569.785-1.135,1.206-1.681L10.629,15.5C10.236,16.005,9.857,16.532,9.505,17.062Zm2.356-3.047-1.49-1.334c.46-.514.942-1.016,1.433-1.492L13.2,12.625C12.739,13.068,12.291,13.536,11.861,14.015Zm2.764-2.683L13.337,9.8c.525-.442,1.074-.871,1.63-1.275l1.176,1.618C15.625,10.521,15.114,10.921,14.625,11.332ZM17.74,9.069l-1.058-1.7c.584-.364,1.187-.711,1.793-1.031l.934,1.769C18.845,8.408,18.284,8.73,17.74,9.069Zm3.4-1.8-.8-1.831c.631-.277,1.277-.534,1.922-.764l.671,1.884C22.33,6.775,21.728,7.014,21.141,7.272Zm3.624-1.293L24.23,4.053c.665-.185,1.342-.347,2.014-.482l.393,1.961C26.013,5.658,25.383,5.808,24.765,5.979ZM38.112,5.7c-.624-.144-1.26-.267-1.891-.366l.31-1.976c.678.106,1.361.239,2.031.393Zm-9.573-.476-.254-1.983c.678-.087,1.371-.151,2.059-.19l.113,2C29.816,5.079,29.17,5.139,28.539,5.219Zm5.769-.12Q33.4,5.02,32.471,5l-.057-2h.091c.659.012,1.322.046,1.973.1Z"/><path fill="#5ab3a7" d="M41,27H36.937a2,2,0,0,0-1.537.72L26.6,38.28a2,2,0,0,1-1.537.72H18V35h5.063a2,2,0,0,0,1.537-.72l8.8-10.56A2,2,0,0,1,34.937,23H41V21l5,4-5,4Z"/></svg>