<svg width="57" height="43" viewBox="0 0 57 43" fill="none" xmlns="http://www.w3.org/2000/svg">
<path d="M50.8346 12.1826C50.8344 11.768 51.0388 11.3663 51.4128 11.0457C51.7869 10.7252 52.3076 10.5057 52.8861 10.4248C53.4646 10.3438 54.0651 10.4063 54.5854 10.6016C55.1057 10.7969 55.5135 11.113 55.7393 11.496C55.9652 11.879 55.9951 12.3051 55.824 12.7019C55.6529 13.0986 55.2914 13.4414 54.801 13.6718C54.3106 13.9022 53.7218 14.0059 53.1347 13.9654C52.5477 13.9248 51.9988 13.7425 51.5817 13.4494C51.3445 13.2833 51.1564 13.0858 51.0282 12.8684C50.9 12.651 50.8342 12.4179 50.8346 12.1826ZM50.8346 30.8174C50.8344 30.4028 51.0388 30.001 51.4128 29.6805C51.7869 29.36 52.3076 29.1405 52.8861 29.0595C53.4646 28.9785 54.0651 29.041 54.5854 29.2364C55.1057 29.4317 55.5135 29.7478 55.7393 30.1308C55.9652 30.5137 55.9951 30.9399 55.824 31.3366C55.6529 31.7334 55.2914 32.0761 54.801 32.3065C54.3106 32.5369 53.7218 32.6407 53.1347 32.6002C52.5477 32.5596 51.9988 32.3773 51.5817 32.0842C51.3445 31.918 51.1564 31.7206 51.0282 31.5032C50.9 31.2858 50.8342 31.0527 50.8346 30.8174V30.8174ZM50.2625 5.28682C50.2623 4.87226 50.4667 4.47048 50.8408 4.14994C51.2148 3.82941 51.7355 3.60995 52.314 3.52897C52.8925 3.44799 53.493 3.51049 54.0133 3.70582C54.5336 3.90116 54.9414 4.21724 55.1672 4.60021C55.3931 4.98318 55.423 5.40934 55.2519 5.80609C55.0808 6.20283 54.7193 6.5456 54.2289 6.776C53.7385 7.00639 53.1497 7.11016 52.5626 7.06961C51.9756 7.02906 51.4268 6.84671 51.0096 6.55362C50.7724 6.38749 50.5843 6.19004 50.4561 5.97264C50.3279 5.75523 50.2621 5.52216 50.2625 5.28682V5.28682ZM50.2625 19.0784C50.2623 18.6638 50.4667 18.262 50.8408 17.9415C51.2148 17.621 51.7355 17.4015 52.314 17.3205C52.8925 17.2396 53.493 17.302 54.0133 17.4974C54.5336 17.6927 54.9414 18.0088 55.1672 18.3918C55.3931 18.7747 55.423 19.2009 55.2519 19.5976C55.0808 19.9944 54.7193 20.3372 54.2289 20.5676C53.7385 20.798 53.1497 20.9017 52.5626 20.8612C51.9756 20.8206 51.4268 20.6383 51.0096 20.3452C50.7724 20.179 50.5843 19.9816 50.4561 19.7642C50.3279 19.5468 50.2621 19.3137 50.2625 19.0784V19.0784ZM50.2625 23.9216C50.2623 23.507 50.4667 23.1052 50.8408 22.7847C51.2148 22.4642 51.7355 22.2447 52.314 22.1637C52.8925 22.0828 53.493 22.1453 54.0133 22.3406C54.5336 22.5359 54.9414 22.852 55.1672 23.235C55.3931 23.6179 55.423 24.0441 55.2519 24.4409C55.0808 24.8376 54.7193 25.1804 54.2289 25.4108C53.7385 25.6412 53.1497 25.7449 52.5626 25.7044C51.9756 25.6638 51.4268 25.4815 51.0096 25.1884C50.7724 25.0223 50.5843 24.8248 50.4561 24.6074C50.3279 24.39 50.2621 24.1569 50.2625 23.9216V23.9216ZM50.2625 37.7132C50.2623 37.2986 50.4667 36.8968 50.8408 36.5763C51.2148 36.2557 51.7355 36.0363 52.314 35.9553C52.8925 35.8743 53.493 35.9368 54.0133 36.1322C54.5336 36.3275 54.9414 36.6436 55.1672 37.0265C55.3931 37.4095 55.423 37.8357 55.2519 38.2324C55.0808 38.6292 54.7193 38.9719 54.2289 39.2023C53.7385 39.4327 53.1497 39.5365 52.5626 39.4959C51.9756 39.4554 51.4268 39.273 51.0096 38.98C50.7724 38.8138 50.5843 38.6164 50.4561 38.399C50.3279 38.1816 50.2621 37.9485 50.2625 37.7132V37.7132Z" fill="#FEDB41"/>
<path d="M30.8823 35.0336V41.5815H20.4334L23.0456 35.0336H30.8823Z" fill="#00ACEA"/>
<path d="M30.8823 28.6078V35.0336H23.0456H1.32224V28.6078H30.8823Z" fill="#FEDB41"/>
<path d="M30.8823 1.41852H1.32224V28.6078H30.8823V1.41852Z" fill="#1836D2"/>
<path d="M49.9438 12.9629C50.1249 13.3506 50.4331 13.703 50.8435 13.9917V13.9805C51.3455 14.3366 51.9868 14.5799 52.6859 14.6795C53.3851 14.779 54.1105 14.7303 54.7702 14.5395C55.4299 14.3488 55.994 14.0246 56.391 13.608C56.788 13.1915 57 12.7015 57 12.2001C57 11.6988 56.788 11.2087 56.391 10.7922C55.994 10.3757 55.4299 10.0514 54.7702 9.86066C54.1105 9.66989 53.3851 9.62119 52.6859 9.72073C51.9868 9.82028 51.3455 10.0636 50.8435 10.4198C50.4047 10.7107 50.0927 11.0833 49.9438 11.4941H31.8933V9.6582H41.3809C41.958 9.6582 42.4728 9.34233 42.4728 8.93668V5.98633H49.3712C49.52 6.39562 49.8319 6.76655 50.2704 7.05549C50.7726 7.40673 51.4116 7.64555 52.1068 7.74179C52.802 7.83803 53.5221 7.78739 54.1764 7.59626C54.8306 7.40512 55.3897 7.08206 55.783 6.66784C56.1762 6.25363 56.3861 5.76681 56.3861 5.26884C56.3861 4.77087 56.1762 4.28406 55.783 3.86984C55.3897 3.45563 54.8306 3.13256 54.1764 2.94143C53.5221 2.7503 52.802 2.69966 52.1068 2.7959C51.4116 2.89214 50.7726 3.13096 50.2704 3.4822C49.8598 3.77331 49.5519 4.12788 49.3712 4.51758H41.3809C40.8039 4.51758 40.383 4.88119 40.383 5.28684V8.18945H31.8933V1.41852C31.8976 1.32219 31.8749 1.22621 31.8264 1.13606C31.7779 1.04591 31.7046 0.963355 31.6108 0.893112C31.5169 0.822868 31.4042 0.766313 31.2792 0.726677C31.1543 0.68704 31.0194 0.6651 30.8823 0.662109H1.32224C1.04275 0.66735 0.777379 0.74959 0.583375 0.891092C0.38937 1.03259 0.282274 1.22202 0.285184 1.41852V35.0336C0.285184 35.4393 0.745198 35.7285 1.32224 35.7285H21.6674L19.6411 40.8691H16.0527C15.7755 40.8691 15.5098 40.9465 15.3138 41.0842C15.1178 41.222 15.0078 41.4087 15.0078 41.6035C15.0078 41.7983 15.1178 41.9851 15.3138 42.1228C15.5098 42.2605 15.7755 42.3379 16.0527 42.3379H30.8823C31.0194 42.3349 31.1543 42.313 31.2792 42.2733C31.4042 42.2337 31.5169 42.1771 31.6108 42.1069C31.7046 42.0366 31.7779 41.9541 31.8264 41.8639C31.8749 41.7738 31.8976 41.6778 31.8933 41.5815V34.8105H40.383V37.7132C40.383 38.1188 40.8039 38.4824 41.3809 38.4824H49.3712C49.5521 38.8718 49.8602 39.226 50.2707 39.5167C50.7737 39.872 51.4154 40.1143 52.1146 40.213C52.8137 40.3117 53.5388 40.2623 54.1979 40.0711C54.8571 39.8798 55.4206 39.5554 55.8172 39.1389C56.2137 38.7223 56.4254 38.2324 56.4254 37.7312C56.4254 37.2301 56.2137 36.7402 55.8172 36.3236C55.4206 35.9071 54.8571 35.5827 54.1979 35.3914C53.5388 35.2002 52.8137 35.1508 52.1146 35.2495C51.4154 35.3482 50.7737 35.5905 50.2707 35.9458C49.8323 36.2343 49.5202 36.6048 49.3712 37.0137H42.4728V34.0633C42.4728 33.6577 41.958 33.3418 41.3809 33.3418H31.8933V31.5977H49.9438C50.1249 31.9854 50.4331 32.3378 50.8435 32.6265V32.6152C51.3455 32.9714 51.9868 33.2147 52.6859 33.3142C53.3851 33.4138 54.1105 33.3651 54.7702 33.1743C55.4299 32.9835 55.994 32.6593 56.391 32.2428C56.788 31.8263 57 31.3362 57 30.8349C57 30.3335 56.788 29.8435 56.391 29.4269C55.994 29.0104 55.4299 28.6862 54.7702 28.4954C54.1105 28.3047 53.3851 28.256 52.6859 28.3555C51.9868 28.455 51.3455 28.6983 50.8435 29.0545C50.4047 29.3454 50.0927 29.7181 49.9438 30.1289H31.8933V28.293H41.3809C41.958 28.293 42.4728 27.9771 42.4728 27.5714V24.6211H49.3712C49.5201 25.0304 49.8322 25.4014 50.2709 25.6903C50.6558 25.9635 51.1247 26.1712 51.6414 26.2975C52.1582 26.4238 52.7093 26.4653 53.2524 26.4188C53.7955 26.3724 54.3163 26.2392 54.7749 26.0295C55.2335 25.8198 55.6178 25.5391 55.8982 25.209C56.1787 24.8788 56.348 24.5079 56.3932 24.1247C56.4383 23.7415 56.3581 23.3561 56.1586 22.998C55.9592 22.6399 55.6458 22.3187 55.2425 22.0588C54.8392 21.799 54.3566 21.6075 53.8318 21.4989C54.3574 21.3907 54.8407 21.1994 55.2448 20.9395C55.6489 20.6797 55.9629 20.3583 56.1629 19.9999C56.3628 19.6416 56.4433 19.2558 56.3982 18.8722C56.3531 18.4886 56.1836 18.1173 55.9027 17.7869C55.6218 17.4564 55.2369 17.1756 54.7776 16.9659C54.3184 16.7562 53.7969 16.6232 53.2531 16.5771C52.7094 16.5311 52.1578 16.5731 51.6408 16.7001C51.1238 16.827 50.655 17.0355 50.2704 17.3096C49.8319 17.5986 49.52 17.9696 49.3712 18.3789H42.4728V15.4286C42.4728 15.0229 41.958 14.707 41.3809 14.707H31.8933V12.9629H49.9438ZM52.321 11.4355C52.5668 11.2629 52.8902 11.1556 53.236 11.1318C53.5818 11.108 53.9286 11.1692 54.2174 11.305C54.5062 11.4408 54.7191 11.6427 54.8198 11.8764C54.9206 12.1101 54.9029 12.3612 54.7698 12.5867C54.6368 12.8123 54.3966 12.9985 54.0901 13.1136C53.7837 13.2287 53.4299 13.2655 53.0892 13.2178C52.7484 13.1702 52.4417 13.041 52.2213 12.8522C52.0008 12.6634 51.8803 12.4268 51.8803 12.1826C51.8805 11.9025 52.0387 11.6338 52.3202 11.4355H52.321ZM51.7494 4.53933C51.9954 4.36688 52.3188 4.25969 52.6645 4.23601C53.0103 4.21232 53.3571 4.27362 53.6458 4.40945C53.9345 4.54528 54.1473 4.74725 54.2479 4.98095C54.3485 5.21466 54.3308 5.46566 54.1976 5.6912C54.0645 5.91673 53.8243 6.10286 53.5178 6.21789C53.2114 6.33291 52.8576 6.36971 52.5169 6.32203C52.1762 6.27435 51.8695 6.14513 51.6491 5.95637C51.4287 5.76762 51.3082 5.53101 51.3082 5.28684C51.3079 5.14799 51.3467 5.01047 51.4222 4.88219C51.4978 4.7539 51.6087 4.63739 51.7486 4.53933H51.7494ZM51.7494 36.9657C51.9954 36.793 52.319 36.6857 52.665 36.662C53.0109 36.6382 53.3579 36.6995 53.6469 36.8353C53.9358 36.9712 54.1488 37.1733 54.2495 37.4071C54.3502 37.6409 54.3325 37.8921 54.1993 38.1178C54.0662 38.3435 53.8258 38.5297 53.5192 38.6448C53.2125 38.7599 52.8586 38.7968 52.5177 38.749C52.1767 38.7013 51.8699 38.572 51.6494 38.3831C51.4288 38.1943 51.3083 37.9575 51.3083 37.7132C51.308 37.5743 51.3467 37.4368 51.4223 37.3085C51.4978 37.1803 51.6087 37.0637 51.7485 36.9657H51.7494ZM52.3211 30.0702C52.5669 29.8977 52.8903 29.7904 53.2361 29.7666C53.5819 29.7428 53.9287 29.804 54.2175 29.9398C54.5063 30.0755 54.7192 30.2775 54.82 30.5112C54.9207 30.7449 54.903 30.9959 54.77 31.2215C54.6369 31.4471 54.3967 31.6333 54.0903 31.7483C53.7838 31.8634 53.4301 31.9003 53.0893 31.8526C52.7485 31.8049 52.4418 31.6757 52.2214 31.487C52.001 31.2982 51.8805 31.0616 51.8804 30.8174C51.8806 30.5373 52.0388 30.2686 52.3202 30.0702H52.3211ZM2.37497 2.13086H29.8035V27.834H2.37497V2.13086ZM29.8035 40.8691H21.8116L23.8378 35.7285H29.8035V40.8691ZM29.8035 34.2598H2.37497V29.3027H29.8035V34.2598ZM53.8752 24.6691C53.6649 24.8168 53.397 24.9173 53.1054 24.958C52.8138 24.9987 52.5116 24.9778 52.2369 24.8978C51.9623 24.8177 51.7275 24.6823 51.5624 24.5086C51.3973 24.3348 51.3091 24.1306 51.3091 23.9216C51.3091 23.7127 51.3973 23.5084 51.5624 23.3346C51.7275 23.1609 51.9623 23.0255 52.2369 22.9454C52.5116 22.8654 52.8138 22.8445 53.1054 22.8852C53.397 22.9259 53.6649 23.0264 53.8752 23.1741C54.1569 23.3725 54.315 23.6413 54.315 23.9216C54.315 24.2019 54.1569 24.4707 53.8752 24.6691V24.6691ZM51.748 18.3309C51.994 18.1583 52.3175 18.051 52.6635 18.0272C53.0095 18.0034 53.3565 18.0647 53.6454 18.2006C53.9344 18.3364 54.1473 18.5385 54.2481 18.7723C54.3488 19.0062 54.3311 19.2573 54.1979 19.483C54.0647 19.7087 53.8243 19.8949 53.5177 20.01C53.2111 20.1252 52.8572 20.162 52.5162 20.1143C52.1753 20.0666 51.8684 19.9372 51.6479 19.7484C51.4274 19.5595 51.3069 19.3227 51.3069 19.0784C51.3068 18.9395 51.3457 18.8019 51.4215 18.6737C51.4973 18.5454 51.6084 18.4289 51.7485 18.3309H51.748ZM40.383 16.1758V19.0784C40.383 19.484 40.8039 19.8477 41.3809 19.8477H49.3712C49.5521 20.237 49.8602 20.5912 50.2707 20.8819C50.6947 21.1777 51.2182 21.3933 51.7925 21.5087C51.2195 21.6193 50.6959 21.8305 50.2709 22.1224C49.8604 22.4115 49.5523 22.7643 49.3712 23.1523H41.3809C40.8039 23.1523 40.383 23.516 40.383 23.9216V26.8242H31.8933V16.1758H40.383Z" fill="#083863"/>
</svg>
