<svg xmlns="http://www.w3.org/2000/svg" xmlns:xlink="http://www.w3.org/1999/xlink" viewBox="0 0 32 32"><defs><linearGradient id="a" x1="16" x2="16" y1="26.934" y2=".069" gradientUnits="userSpaceOnUse"><stop offset="0" stop-color="#e93e3a"/><stop offset=".355" stop-color="#ed683c"/><stop offset=".705" stop-color="#f3903f"/><stop offset="1" stop-color="#fdc70c"/></linearGradient><linearGradient id="b" x1="9" x2="9" y1="26.934" y2=".069" xlink:href="#a"/><linearGradient id="c" x1="23" x2="23" y1="26.934" y2=".069" xlink:href="#a"/></defs><g data-name="Name Tag"><path fill="url(#a)" d="M31,5H1A1,1,0,0,0,0,6V26a1,1,0,0,0,1,1H31a1,1,0,0,0,1-1V6A1,1,0,0,0,31,5ZM30,25H2V7H30Z"/><path fill="url(#b)" d="M5,23h8a1,1,0,0,0,1-1V20A5,5,0,0,0,4,20v2A1,1,0,0,0,5,23Zm1-3a3,3,0,0,1,6,0v1H6Z"/><path fill="url(#b)" d="M12,12a3,3,0,1,0-3,3A3,3,0,0,0,12,12ZM9,13a1,1,0,1,1,1-1A1,1,0,0,1,9,13Z"/><rect width="10" height="2" x="18" y="21" fill="url(#c)"/><rect width="10" height="2" x="18" y="17" fill="url(#c)"/><rect width="10" height="2" x="18" y="13" fill="url(#c)"/></g></svg>