<svg xmlns="http://www.w3.org/2000/svg" width="32" height="32" viewBox="0 0 32 32"><g transform="translate(0 -1020.362)"><circle cx="16" cy="1036.362" r="16" fill="#424242" fill-rule="evenodd"/><path fill="#1f212a" style="line-height:normal;text-indent:0;text-align:start;text-decoration-line:none;text-decoration-style:solid;text-decoration-color:#000;text-transform:none;block-progression:tb;isolation:auto;mix-blend-mode:normal" d="M 20.837891 31.230469 A 16 16 0 0 0 21.796875 30.912109 A 16 16 0 0 0 23.257812 30.259766 A 16 16 0 0 0 24.644531 29.462891 A 16 16 0 0 0 25.945312 28.533203 A 16 16 0 0 0 27.146484 27.478516 A 16 16 0 0 0 28.238281 26.306641 A 16 16 0 0 0 29.205078 25.035156 A 16 16 0 0 0 30.041016 23.669922 A 16 16 0 0 0 30.736328 22.230469 A 16 16 0 0 0 30.972656 21.582031 L 20.941406 11.550781 C 20.927397 11.536772 20.910618 11.525614 20.896484 11.511719 C 20.542144 11.163337 20.148323 10.851064 19.720703 10.582031 C 19.664142 10.546467 19.606578 10.512542 19.548828 10.478516 C 19.380476 10.379258 19.207401 10.286783 19.029297 10.201172 C 18.970748 10.173045 18.91308 10.143777 18.853516 10.117188 C 18.618618 10.012246 18.378869 9.9157988 18.128906 9.8359375 A 0.50035598 0.50035598 0 0 0 17.542969 10.048828 L 16.503906 9.0097656 A 0.50005 0.50005 0 0 0 15.996094 8.5019531 A 0.50005 0.50005 0 0 0 15.503906 9.0097656 L 15.503906 11.453125 L 14.517578 10.466797 A 0.50004997 0.50004997 0 0 0 14.017578 9.8066406 L 14.017578 9.8085938 A 0.50004997 0.50004997 0 0 0 13.884766 9.8320312 C 12.857916 10.157618 11.954086 10.704609 11.210938 11.404297 C 11.062715 11.54385 10.920167 11.688514 10.785156 11.839844 C 10.785156 11.839844 10.785156 11.841797 10.785156 11.841797 C 10.650204 11.993127 10.519543 12.148479 10.398438 12.310547 C 10.398438 12.310547 10.398438 12.3125 10.398438 12.3125 C 10.27739 12.474566 10.163205 12.640734 10.056641 12.8125 C 10.056641 12.8125 10.056641 12.814453 10.056641 12.814453 C 9.9501326 12.98622 9.8511545 13.16332 9.7597656 13.34375 C 9.5761305 13.706085 9.423467 14.083574 9.3046875 14.474609 C 9.2453808 14.669854 9.1945144 14.867521 9.1523438 15.068359 C 9.1523438 15.068359 9.1523438 15.070312 9.1523438 15.070312 C 9.110359 15.270541 9.0770486 15.472982 9.0527344 15.677734 C 9.0527344 15.677734 9.0527344 15.679688 9.0527344 15.679688 C 9.0041429 16.089856 8.9914125 16.507582 9.0175781 16.929688 C 9.0175781 16.929688 9.0175781 16.931641 9.0175781 16.931641 C 9.0307003 17.142389 9.0532204 17.354233 9.0859375 17.566406 C 9.0859375 17.566406 9.0859375 17.568359 9.0859375 17.568359 C 9.0865489 17.572325 9.0872727 17.576115 9.0878906 17.580078 C 9.1405082 17.916942 9.2242906 18.242679 9.3222656 18.560547 C 9.3390911 18.615173 9.3529925 18.670599 9.3710938 18.724609 C 9.4727065 19.02764 9.5965053 19.319581 9.7363281 19.601562 C 9.7635835 19.656543 9.7897265 19.711508 9.8183594 19.765625 C 9.9625358 20.038093 10.12356 20.297926 10.300781 20.546875 C 10.341969 20.604763 10.384864 20.660269 10.427734 20.716797 C 10.614468 20.962956 10.812656 21.199321 11.029297 21.417969 C 11.037096 21.425842 11.042946 21.435524 11.050781 21.443359 L 20.837891 31.230469 z " color="#000" font-family="sans-serif" font-weight="400" transform="translate(0 1020.362)"/><path fill="#fff" style="line-height:normal;text-indent:0;text-align:start;text-decoration-line:none;text-decoration-style:solid;text-decoration-color:#000;text-transform:none;block-progression:tb;isolation:auto;mix-blend-mode:normal" d="M 8.4960938,1 A 0.50005,0.50005 0 0 0 8.0039062,1.5078125 l 0,4 a 0.50005,0.50005 0 1 0 1,0 l 0,-4 A 0.50005,0.50005 0 0 0 8.4960938,1 Z m -1.9785157,1.3105469 0,0.00195 a 0.50004997,0.50004997 0 0 0 -0.1328125,0.023437 c -3.2844137,1.0414 -5.3238943,4.329275 -4.7988281,7.7343741 0.5250266,3.4051 3.4606904,5.923935 6.90625,5.927735 3.4455645,0 6.3874145,-2.510163 6.9199215,-5.914063 0.532507,-3.4038992 -1.501125,-6.6955398 -4.783203,-7.7441398 a 0.50032026,0.50032026 0 0 0 -0.304687,0.953125 c 2.819264,0.9006999 4.557009,3.7129187 4.099609,6.6367187 -0.457401,2.9238001 -2.969978,5.0716591 -5.9296874,5.0683591 -2.9597046,0 -5.4689467,-2.155178 -5.9199218,-5.0800778 C 2.1232095,6.9931687 3.8662287,4.1835625 6.6875,3.2890625 A 0.50004997,0.50004997 0 0 0 6.5175781,2.3105469 Z" color="#000" font-family="sans-serif" font-weight="400" overflow="visible" transform="translate(7.5 1027.863)"/></g></svg>