<svg xmlns="http://www.w3.org/2000/svg" width="16" height="16" viewBox="0 0 16 16"><path style="line-height:normal;text-indent:0;text-align:start;text-decoration-line:none;text-decoration-style:solid;text-decoration-color:#000;text-transform:none;block-progression:tb;white-space:normal;isolation:auto;mix-blend-mode:normal;solid-color:#000;solid-opacity:1" d="M 8.4960938 1 A 0.50005 0.50005 0 0 0 8.0039062 1.5078125 L 8.0039062 5.5078125 A 0.50005 0.50005 0 1 0 9.0039062 5.5078125 L 9.0039062 1.5078125 A 0.50005 0.50005 0 0 0 8.4960938 1 z M 6.5175781 2.3105469 L 6.5175781 2.3125 A 0.50004997 0.50004997 0 0 0 6.3847656 2.3359375 C 3.1003519 3.3773375 1.0608713 6.6652125 1.5859375 10.070312 C 2.1109641 13.475412 5.0466279 15.994247 8.4921875 15.998047 C 11.937752 15.998047 14.879602 13.487884 15.412109 10.083984 C 15.944616 6.6800844 13.910984 3.3884438 10.628906 2.3398438 A 0.50030835 0.50030835 0 0 0 10.324219 3.2929688 C 13.143483 4.1936687 14.881228 7.0058875 14.423828 9.9296875 C 13.966427 12.853488 11.45385 15.001347 8.4941406 14.998047 C 5.534436 14.998047 3.0251939 12.842869 2.5742188 9.9179688 C 2.1232095 6.9931687 3.8662287 4.1835625 6.6875 3.2890625 A 0.50004997 0.50004997 0 0 0 6.5175781 2.3105469 z " color="#000" enable-background="accumulate" font-family="sans-serif" font-weight="400" overflow="visible"/></svg>