<svg width="57" height="52" viewBox="0 0 57 52" fill="none" xmlns="http://www.w3.org/2000/svg">
<path d="M32.0625 26C32.0625 27.7977 30.4705 29.25 28.5 29.25C26.5295 29.25 24.9375 27.7977 24.9375 26V3.25C24.9375 1.45539 26.5295 0 28.5 0C30.4705 0 32.0625 1.45539 32.0625 3.25V26ZM8.90625 26C8.90625 35.8719 17.6789 43.875 28.5 43.875C39.3211 43.875 48.0938 35.8719 48.0938 26C48.0938 20.475 45.3439 15.5289 41.0244 12.2484C39.5104 11.1008 39.2988 9.05227 40.5568 7.67203C41.8148 6.2918 44.0637 6.10391 45.5777 7.25156C51.4559 11.7203 55.2188 18.4641 55.2188 25.9086C55.2188 39.457 43.251 50.375 28.5 50.375C13.749 50.375 1.78125 39.457 1.78125 25.9086C1.78125 18.4641 5.53857 11.7203 11.4223 7.25156C12.9363 6.10391 15.1852 6.2918 16.4432 7.67203C17.601 9.05227 17.4896 11.1008 15.9756 12.2484C11.6561 15.5289 8.90625 20.475 8.90625 26Z" fill="#3F51B5"/>
</svg>
