<svg xmlns="http://www.w3.org/2000/svg" xmlns:xlink="http://www.w3.org/1999/xlink" width="40" height="40" viewBox="0 0 40 40"><defs><linearGradient id="a" x1="50%" x2="50%" y1="97.58%" y2="4.33%"><stop offset="0%" stop-color="#606162"/><stop offset="100%" stop-color="#A2A3A6"/></linearGradient><path id="b" d="M17,34 C7.61115925,34 0,26.3888407 0,17 C0,7.61115925 7.61115925,0 17,0 C26.3888407,0 34,7.61115925 34,17 C34,26.3888407 26.3888407,34 17,34 Z M17,27 C22.5228475,27 27,22.5228475 27,17 C27,11.4771525 22.5228475,7 17,7 C11.4771525,7 7,11.4771525 7,17 C7,22.5228475 11.4771525,27 17,27 Z"/></defs><g fill="none" fill-rule="evenodd"><circle cx="20" cy="20" r="20" fill="url(#a)"/><path fill="#FFF" d="M20,32.5 C13.0964406,32.5 7.5,26.9035594 7.5,20 C7.5,13.0964406 13.0964406,7.5 20,7.5 C26.9035594,7.5 32.5,13.0964406 32.5,20 C32.5,26.9035594 26.9035594,32.5 20,32.5 Z M20,30 C25.5228475,30 30,25.5228475 30,20 C30,14.4771525 25.5228475,10 20,10 C14.4771525,10 10,14.4771525 10,20 C10,25.5228475 14.4771525,30 20,30 Z"/><path fill="#FFF" d="M20 19L28.1715729 19C28.7020059 19 29.2107137 18.7892863 29.5857864 18.4142136L30 18 30 22 29.5857864 21.5857864C29.2107137 21.2107137 28.7020059 21 28.1715729 21L20 21 19 20 20 19zM11.6992833 22.711377L19.8708562 22.711377C20.4012892 22.711377 20.909997 22.5006634 21.2850698 22.1255906L21.6992833 21.711377 21.6992833 25.711377 21.2850698 25.2971635C20.909997 24.9220907 20.4012892 24.711377 19.8708562 24.711377L11.6992833 24.711377 11.6992833 22.711377z"/><path fill="#FFF" d="M11.6992833,13.0077818 L19.8708562,13.0077818 C20.4012892,13.0077818 20.909997,12.7970681 21.2850698,12.4219954 L21.6992833,12.0077818 L21.6992833,16.0077818 L21.2850698,15.5935683 C20.909997,15.2184955 20.4012892,15.0077818 19.8708562,15.0077818 L11.6992833,15.0077818 L11.6992833,13.0077818 Z" transform="matrix(1 0 0 -1 0 30.16)"/><g transform="translate(3 3)"><mask id="c" fill="#fff"><use xlink:href="#b"/></mask><path fill="#FFF" d="M2.35857864,15.8773459 L5,15.5 L29,15.5 L31.6414214,15.8773459 C32.1340701,15.9477243 32.5,16.369645 32.5,16.8672954 L32.5,17.1327046 C32.5,17.630355 32.1340701,18.0522757 31.6414214,18.1226541 L29,18.5 L5,18.5 L2.35857864,18.1226541 C1.86592991,18.0522757 1.5,17.630355 1.5,17.1327046 L1.5,16.8672954 C1.5,16.369645 1.86592991,15.9477243 2.35857864,15.8773459 Z" mask="url(#c)"/><path fill="#FFF" d="M2.35857864,15.8773459 L5,15.5 L29,15.5 L31.6414214,15.8773459 C32.1340701,15.9477243 32.5,16.369645 32.5,16.8672954 L32.5,17.1327046 C32.5,17.630355 32.1340701,18.0522757 31.6414214,18.1226541 L29,18.5 L5,18.5 L2.35857864,18.1226541 C1.86592991,18.0522757 1.5,17.630355 1.5,17.1327046 L1.5,16.8672954 C1.5,16.369645 1.86592991,15.9477243 2.35857864,15.8773459 Z" mask="url(#c)" transform="rotate(20 17 17)"/><path fill="#FFF" d="M2.35857864,15.8773459 L5,15.5 L29,15.5 L31.6414214,15.8773459 C32.1340701,15.9477243 32.5,16.369645 32.5,16.8672954 L32.5,17.1327046 C32.5,17.630355 32.1340701,18.0522757 31.6414214,18.1226541 L29,18.5 L5,18.5 L2.35857864,18.1226541 C1.86592991,18.0522757 1.5,17.630355 1.5,17.1327046 L1.5,16.8672954 C1.5,16.369645 1.86592991,15.9477243 2.35857864,15.8773459 Z" mask="url(#c)" transform="rotate(40 17 17)"/><path fill="#FFF" d="M2.35857864,15.8773459 L5,15.5 L29,15.5 L31.6414214,15.8773459 C32.1340701,15.9477243 32.5,16.369645 32.5,16.8672954 L32.5,17.1327046 C32.5,17.630355 32.1340701,18.0522757 31.6414214,18.1226541 L29,18.5 L5,18.5 L2.35857864,18.1226541 C1.86592991,18.0522757 1.5,17.630355 1.5,17.1327046 L1.5,16.8672954 C1.5,16.369645 1.86592991,15.9477243 2.35857864,15.8773459 Z" mask="url(#c)" transform="rotate(60 17 17)"/><path fill="#FFF" d="M2.35857864,15.8773459 L5,15.5 L29,15.5 L31.6414214,15.8773459 C32.1340701,15.9477243 32.5,16.369645 32.5,16.8672954 L32.5,17.1327046 C32.5,17.630355 32.1340701,18.0522757 31.6414214,18.1226541 L29,18.5 L5,18.5 L2.35857864,18.1226541 C1.86592991,18.0522757 1.5,17.630355 1.5,17.1327046 L1.5,16.8672954 C1.5,16.369645 1.86592991,15.9477243 2.35857864,15.8773459 Z" mask="url(#c)" transform="rotate(80 17 17)"/><path fill="#FFF" d="M2.35857864,15.8773459 L5,15.5 L29,15.5 L31.6414214,15.8773459 C32.1340701,15.9477243 32.5,16.369645 32.5,16.8672954 L32.5,17.1327046 C32.5,17.630355 32.1340701,18.0522757 31.6414214,18.1226541 L29,18.5 L5,18.5 L2.35857864,18.1226541 C1.86592991,18.0522757 1.5,17.630355 1.5,17.1327046 L1.5,16.8672954 C1.5,16.369645 1.86592991,15.9477243 2.35857864,15.8773459 Z" mask="url(#c)" transform="rotate(100 17 17)"/><path fill="#FFF" d="M2.35857864,15.8773459 L5,15.5 L29,15.5 L31.6414214,15.8773459 C32.1340701,15.9477243 32.5,16.369645 32.5,16.8672954 L32.5,17.1327046 C32.5,17.630355 32.1340701,18.0522757 31.6414214,18.1226541 L29,18.5 L5,18.5 L2.35857864,18.1226541 C1.86592991,18.0522757 1.5,17.630355 1.5,17.1327046 L1.5,16.8672954 C1.5,16.369645 1.86592991,15.9477243 2.35857864,15.8773459 Z" mask="url(#c)" transform="rotate(120 17 17)"/><path fill="#FFF" d="M2.35857864,15.8773459 L5,15.5 L29,15.5 L31.6414214,15.8773459 C32.1340701,15.9477243 32.5,16.369645 32.5,16.8672954 L32.5,17.1327046 C32.5,17.630355 32.1340701,18.0522757 31.6414214,18.1226541 L29,18.5 L5,18.5 L2.35857864,18.1226541 C1.86592991,18.0522757 1.5,17.630355 1.5,17.1327046 L1.5,16.8672954 C1.5,16.369645 1.86592991,15.9477243 2.35857864,15.8773459 Z" mask="url(#c)" transform="rotate(140 17 17)"/><path fill="#FFF" d="M2.35857864,15.8773459 L5,15.5 L29,15.5 L31.6414214,15.8773459 C32.1340701,15.9477243 32.5,16.369645 32.5,16.8672954 L32.5,17.1327046 C32.5,17.630355 32.1340701,18.0522757 31.6414214,18.1226541 L29,18.5 L5,18.5 L2.35857864,18.1226541 C1.86592991,18.0522757 1.5,17.630355 1.5,17.1327046 L1.5,16.8672954 C1.5,16.369645 1.86592991,15.9477243 2.35857864,15.8773459 Z" mask="url(#c)" transform="rotate(160 17 17)"/></g></g></svg>