<svg xmlns="http://www.w3.org/2000/svg" width="32" height="32" viewBox="0 0 32 32"><path fill="#60c5b8" style="isolation:auto;mix-blend-mode:normal" d="M8.9230769 1034.2084c-.159803 0-.2884615.1285-.2884615.2885l0 1.6158a6.3461538 6.3461538 0 0 0-1.9042968.7854l-1.1403247-1.1404c-.1129996-.1131-.294903-.1131-.4079026 0l-1.6327374 1.6327c-.1130066.113-.1130066.2949 0 .408l1.1425782 1.1425A6.3461538 6.3461538 0 0 0 3.90317 1040.843l-1.6147085 0C2.1286578 1040.843 2 1040.9716 2 1041.1315l0 2.3076c0 .1598.1286578.2885.2884615.2885l1.6158353 0a6.3461538 6.3461538 0 0 0 .7853817 1.9043l-1.1403246 1.1403c-.1130066.113-.1130066.2949 0 .4079l1.6327374 1.6327c.1129996.1131.2949029.1131.4079026 0l1.1425782-1.1426a6.3461538 6.3461538 0 0 0 1.9020433.7889l0 1.6146c0 .1599.1286585.2885.2884615.2885l2.3076931 0c.159802 0 .288461-.1286.288461-.2885l0-1.6158a6.3461538 6.3461538 0 0 0 1.904296-.7854l1.140325 1.1403c.113008.1131.294904.1131.407903 0l1.632737-1.6327c.113008-.113.113008-.2949 0-.4079l-1.142578-1.1425a6.3461538 6.3461538 0 0 0 .788762-1.9021l1.614709 0c.159802 0 .288461-.1287.288461-.2885l0-2.3076c0-.1599-.128659-.2885-.288461-.2885l-1.615836 0a6.3461538 6.3461538 0 0 0-.785381-1.9044l1.140324-1.1402c.113008-.1131.113008-.295 0-.408l-1.632737-1.6327c-.112999-.1131-.294895-.1131-.407903 0l-1.142578 1.1426a6.3461538 6.3461538 0 0 0-1.902043-.7888l0-1.6146c0-.16-.128659-.2885-.288461-.2885l-2.3076931 0zm1.1538461 4.0384a4.0384615 4.0384615 0 0 1 4.038462 4.0385 4.0384615 4.0384615 0 0 1-4.038462 4.0384 4.0384615 4.0384615 0 0 1-4.0384615-4.0384 4.0384615 4.0384615 0 0 1 4.0384615-4.0385zM20.679818 1032.6872c-.09776.026-.155283.1263-.129166.2238l.264847.9884a4.0192307 4.0192307 0 0 0-1.036214.7926l-.884514-.5106c-.0878-.052-.199082-.021-.249535.067l-.731196 1.2665c-.05073.087-.02081.1989.06687.2496l.886253.5116a4.0192307 4.0192307 0 0 0-.170742 1.2929l-.987802.2647c-.09776.026-.155285.1263-.129195.2237l.378289 1.4118c.0262.098.125977.1553.22374.1291l.988492-.2649a4.0192307 4.0192307 0 0 0 .792607 1.0362l-.510681.8846c-.05073.087-.02077.1989.06687.2495l1.266466.7312c.08752.051.198804.02.249536-.067l.511698-.8863a4.0192307 4.0192307 0 0 0 1.292883.1708l.264652.9877c.0262.098.126005.1554.223767.1293l1.411739-.3784c.09776-.026.155283-.1263.129166-.2237l-.264847-.9884a4.0192307 4.0192307 0 0 0 1.036214-.7927l.884513.5106c.08753.051.198804.021.249535-.067l.731197-1.2664c.05073-.087.02081-.1989-.06687-.2496l-.886253-.5117a4.0192307 4.0192307 0 0 0 .170742-1.2928l.987802-.2647c.09776-.026.155285-.1264.129195-.2237l-.37829-1.4119c-.0262-.098-.125976-.1553-.223739-.1291l-.988493.2649a4.0192307 4.0192307 0 0 0-.792606-1.0362l.510681-.8846c.05047-.088.02077-.1989-.06687-.2495l-1.266466-.7311c-.0878-.052-.199078-.022-.249536.067l-.511698.8863a4.0192307 4.0192307 0 0 0-1.292883-.1708l-.264652-.9878c-.0262-.098-.126005-.1554-.223767-.1292l-1.411739.3783zm1.367849 2.2814a2.5576923 2.5576923 0 0 1 3.132521 1.8085 2.5576923 2.5576923 0 0 1-1.808562 3.1326 2.5576923 2.5576923 0 0 1-3.132521-1.8086 2.5576923 2.5576923 0 0 1 1.808562-3.1325zM14.615384 1022.3622c-.117188 0-.211538.095-.211538.2116l0 1.185a4.6538461 4.6538461 0 0 0-1.396484.5759l-.836238-.8363c-.08287-.083-.216262-.083-.299128 0l-1.197342 1.1974c-.08287.083-.08287.2161 0 .299l.837892.8379a4.6538461 4.6538461 0 0 0-.578427 1.3948l-1.1841191 0c-.1171892 0-.2115384.094-.2115384.2116l0 1.6923c0 .1172.094349.2116.2115384.2116l1.1849451 0a4.6538461 4.6538461 0 0 0 .575947 1.3965l-.836238.8362c-.08287.083-.08287.2163 0 .2991l1.197342 1.1974c.08287.083.216262.083.299128 0l.83789-.838a4.6538461 4.6538461 0 0 0 1.394832.5786l0 1.1839c0 .1173.09435.2117.211538.2117l1.692309 0c.117188 0 .211538-.095.211538-.2117l0-1.1849a4.6538461 4.6538461 0 0 0 1.396484-.5759l.836238.8363c.08287.083.216262.083.299128 0l1.197342-1.1974c.08287-.083.08287-.2162 0-.2991l-.837891-.8378a4.6538461 4.6538461 0 0 0 .578426-1.3949l1.18412 0c.117187 0 .211537-.095.211537-.2116l0-1.6923c0-.1171-.09435-.2116-.211537-.2116l-1.184948 0a4.6538461 4.6538461 0 0 0-.575946-1.3964l.836239-.8363c.08287-.083.08287-.2162 0-.299l-1.197342-1.1974c-.08287-.083-.216255-.083-.299128 0l-.83789.8379a4.6538461 4.6538461 0 0 0-1.394832-.5785l0-1.184c0-.1173-.09435-.2116-.211538-.2116l-1.692309 0zm.846154 2.9615a2.9615385 2.9615385 0 0 1 2.961539 2.9616 2.9615385 2.9615385 0 0 1-2.961539 2.9615 2.9615385 2.9615385 0 0 1-2.961538-2.9615 2.9615385 2.9615385 0 0 1 2.961538-2.9616z" color="#000" overflow="visible" transform="translate(1.077 -1020.362)"/></svg>