<svg xmlns="http://www.w3.org/2000/svg" xmlns:xlink="http://www.w3.org/1999/xlink" width="32" height="32" viewBox="0 0 32 32"><defs><linearGradient id="a"><stop offset="0" stop-color="#000092"/><stop offset="1" stop-color="#ff00f3"/></linearGradient><linearGradient id="b" x1="3.795" x2="25" y1="16.125" y2="16.125" gradientUnits="userSpaceOnUse" xlink:href="#a"/></defs><path fill="url(#b)" d="M 15.875 5 A 0.50005 0.50005 0 0 0 15.375 5.5 L 15.375 6.0117188 C 15.230662 6.0617187 15.090621 6.1193469 14.953125 6.1855469 L 14.591797 5.8261719 A 0.50005 0.50005 0 0 0 13.884766 5.8261719 L 12.824219 6.8867188 A 0.50005 0.50005 0 0 0 12.824219 7.59375 L 13.185547 7.9550781 C 13.119187 8.0919781 13.06155 8.2313 13.011719 8.375 L 12.5 8.375 A 0.50005 0.50005 0 0 0 12 8.875 L 12 10.375 A 0.50005 0.50005 0 0 0 12.5 10.875 L 13.011719 10.875 C 13.061319 11.0197 13.119216 11.159075 13.185547 11.296875 L 12.824219 11.658203 A 0.50005 0.50005 0 0 0 12.824219 12.365234 L 13.884766 13.425781 A 0.50005 0.50005 0 0 0 14.591797 13.425781 L 14.953125 13.064453 C 15.09075 13.131453 15.230458 13.190234 15.375 13.240234 L 15.375 13.75 A 0.50005 0.50005 0 0 0 15.875 14.25 L 17.375 14.25 A 0.50005 0.50005 0 0 0 17.875 13.75 L 17.875 13.238281 C 18.019184 13.188281 18.159518 13.132606 18.296875 13.066406 L 18.658203 13.425781 A 0.50005 0.50005 0 0 0 19.365234 13.425781 L 20.425781 12.365234 A 0.50005 0.50005 0 0 0 20.425781 11.658203 L 20.064453 11.296875 C 20.131193 11.159275 20.190221 11.0196 20.240234 10.875 L 20.75 10.875 A 0.50005 0.50005 0 0 0 21.25 10.375 L 21.25 8.875 A 0.50005 0.50005 0 0 0 20.75 8.375 L 20.238281 8.375 C 20.188781 8.2308 20.132532 8.090425 20.066406 7.953125 L 20.425781 7.59375 A 0.50005 0.50005 0 0 0 20.425781 6.8867188 L 19.365234 5.8261719 A 0.50005 0.50005 0 0 0 18.658203 5.8261719 L 18.296875 6.1875 C 18.159251 6.1205 18.019543 6.0618187 17.875 6.0117188 L 17.875 5.5 A 0.50005 0.50005 0 0 0 17.375 5 L 15.875 5 z M 16.375 6 L 16.875 6 L 16.875 6.3378906 A 0.50005 0.50005 0 0 0 17.263672 6.8261719 C 17.578835 6.8981719 17.880528 7.0235125 18.154297 7.1953125 A 0.50005 0.50005 0 0 0 18.773438 7.125 L 19.011719 6.8867188 L 19.365234 7.2402344 L 19.128906 7.4765625 A 0.50005 0.50005 0 0 0 19.056641 8.09375 C 19.227751 8.36805 19.35291 8.6708281 19.423828 8.9863281 A 0.50005 0.50005 0 0 0 19.910156 9.375 L 20.25 9.375 L 20.25 9.875 L 19.912109 9.875 A 0.50005 0.50005 0 0 0 19.423828 10.265625 C 19.352008 10.580725 19.228499 10.880497 19.056641 11.154297 A 0.50005 0.50005 0 0 0 19.126953 11.773438 L 19.365234 12.011719 L 19.011719 12.365234 L 18.775391 12.128906 A 0.50005 0.50005 0 0 0 18.15625 12.058594 C 17.881938 12.229694 17.581051 12.352828 17.265625 12.423828 A 0.50005 0.50005 0 0 0 16.875 12.912109 L 16.875 13.25 L 16.375 13.25 L 16.375 12.912109 A 0.50005 0.50005 0 0 0 15.986328 12.425781 C 15.67117 12.353781 15.369478 12.228441 15.095703 12.056641 A 0.50005 0.50005 0 0 0 14.476562 12.126953 L 14.238281 12.365234 L 13.884766 12.011719 L 14.123047 11.775391 A 0.50005 0.50005 0 0 0 14.193359 11.15625 C 14.022249 10.88195 13.899044 10.581025 13.828125 10.265625 A 0.50005 0.50005 0 0 0 13.339844 9.875 L 13 9.875 L 13 9.375 L 13.337891 9.375 A 0.50005 0.50005 0 0 0 13.826172 8.9863281 C 13.898002 8.6711281 14.021507 8.3713562 14.193359 8.0976562 A 0.50005 0.50005 0 0 0 14.123047 7.4785156 L 13.884766 7.2402344 L 14.238281 6.8867188 L 14.476562 7.1230469 A 0.50005 0.50005 0 0 0 15.09375 7.1933594 C 15.368059 7.0222594 15.668952 6.899025 15.984375 6.828125 A 0.50005 0.50005 0 0 0 16.375 6.3398438 L 16.375 6 z M 16.625 7.9804688 C 15.72208 7.9804688 14.978516 8.7221 14.978516 9.625 C 14.978516 10.5279 15.721816 11.271484 16.625 11.271484 C 17.528179 11.271484 18.271484 10.5279 18.271484 9.625 C 18.271484 8.7221 17.527914 7.9804688 16.625 7.9804688 z M 16.625 8.9804688 C 16.981726 8.9804688 17.271484 9.2682 17.271484 9.625 C 17.271484 9.9817 16.981461 10.271484 16.625 10.271484 C 16.268524 10.271484 15.978516 9.9817 15.978516 9.625 C 15.978516 9.2682 16.26826 8.9804688 16.625 8.9804688 z M 7.6699219 11.535156 A 0.50005 0.50005 0 0 0 7.1699219 12.035156 L 7.1699219 12.546875 C 7.0257394 12.595875 6.8854022 12.65265 6.7480469 12.71875 L 6.3886719 12.359375 A 0.50005 0.50005 0 0 0 5.6816406 12.359375 L 4.6210938 13.419922 A 0.50005 0.50005 0 0 0 4.6210938 14.126953 L 4.9824219 14.488281 C 4.9156859 14.625881 4.8566569 14.765556 4.8066406 14.910156 L 4.2949219 14.910156 A 0.50005 0.50005 0 0 0 3.7949219 15.410156 L 3.7949219 16.910156 A 0.50005 0.50005 0 0 0 4.2949219 17.410156 L 4.8066406 17.410156 C 4.8561806 17.554456 4.914265 17.694531 4.9804688 17.832031 L 4.6210938 18.191406 A 0.50005 0.50005 0 0 0 4.6210938 18.900391 L 5.6816406 19.960938 A 0.50005 0.50005 0 0 0 6.3886719 19.960938 L 6.75 19.599609 C 6.8868992 19.665609 7.0261865 19.723637 7.1699219 19.773438 L 7.1699219 20.285156 A 0.50005 0.50005 0 0 0 7.6699219 20.785156 L 9.1699219 20.785156 A 0.50005 0.50005 0 0 0 9.6699219 20.285156 L 9.6699219 19.773438 C 9.8142611 19.723438 9.9542992 19.665809 10.091797 19.599609 L 10.453125 19.960938 A 0.50005 0.50005 0 0 0 11.160156 19.960938 L 12.220703 18.900391 A 0.50005 0.50005 0 0 0 12.220703 18.191406 L 11.861328 17.832031 C 11.927928 17.694531 11.985224 17.554456 12.035156 17.410156 L 12.544922 17.410156 A 0.50005 0.50005 0 0 0 13.044922 16.910156 L 13.044922 15.410156 A 0.50005 0.50005 0 0 0 12.544922 14.910156 L 12.033203 14.910156 C 11.983623 14.765756 11.925634 14.625881 11.859375 14.488281 L 12.220703 14.126953 A 0.50005 0.50005 0 0 0 12.220703 13.419922 L 11.160156 12.359375 A 0.50005 0.50005 0 0 0 10.453125 12.359375 L 10.091797 12.720703 C 9.9541727 12.653703 9.8144651 12.595022 9.6699219 12.544922 L 9.6699219 12.035156 A 0.50005 0.50005 0 0 0 9.1699219 11.535156 L 7.6699219 11.535156 z M 8.1699219 12.535156 L 8.6699219 12.535156 L 8.6699219 12.873047 A 0.50005 0.50005 0 0 0 9.0585938 13.359375 C 9.3737571 13.431375 9.6754498 13.556716 9.9492188 13.728516 A 0.50005 0.50005 0 0 0 10.568359 13.658203 L 10.806641 13.419922 L 11.160156 13.773438 L 10.923828 14.009766 A 0.50005 0.50005 0 0 0 10.853516 14.628906 C 11.024626 14.903206 11.147831 15.204031 11.21875 15.519531 A 0.50005 0.50005 0 0 0 11.707031 15.910156 L 12.044922 15.910156 L 12.044922 16.410156 L 11.707031 16.410156 A 0.50005 0.50005 0 0 0 11.220703 16.798828 C 11.148883 17.113928 11.023421 17.4137 10.851562 17.6875 A 0.50005 0.50005 0 0 0 10.921875 18.308594 L 11.160156 18.544922 L 10.806641 18.898438 L 10.570312 18.662109 A 0.50005 0.50005 0 0 0 9.9511719 18.591797 C 9.6768601 18.762897 9.3759725 18.886031 9.0605469 18.957031 A 0.50005 0.50005 0 0 0 8.6699219 19.445312 L 8.6699219 19.785156 L 8.1699219 19.785156 L 8.1699219 19.447266 A 0.50005 0.50005 0 0 0 7.78125 18.958984 C 7.4660919 18.886984 7.1663527 18.763697 6.8925781 18.591797 A 0.50005 0.50005 0 0 0 6.2734375 18.660156 L 6.0351562 18.898438 L 5.6816406 18.542969 L 5.9179688 18.306641 A 0.50005 0.50005 0 0 0 5.9882812 17.689453 C 5.8171713 17.415153 5.6939655 17.114228 5.6230469 16.798828 A 0.50005 0.50005 0 0 0 5.1347656 16.408203 L 4.7949219 16.408203 L 4.7949219 15.908203 L 5.1328125 15.908203 A 0.50005 0.50005 0 0 0 5.6210938 15.519531 C 5.6929228 15.204431 5.8164289 14.902606 5.9882812 14.628906 A 0.50005 0.50005 0 0 0 5.9199219 14.009766 L 5.6816406 13.771484 L 6.0351562 13.417969 L 6.2714844 13.654297 A 0.50005 0.50005 0 0 0 6.8886719 13.724609 C 7.162981 13.553509 7.4638742 13.430275 7.7792969 13.359375 A 0.50005 0.50005 0 0 0 8.1699219 12.871094 L 8.1699219 12.535156 z M 19.408203 14.25 A 0.50004997 0.50004997 0 0 0 18.908203 14.75 L 18.908203 15.644531 C 18.598171 15.740531 18.299617 15.862019 18.011719 16.011719 L 17.382812 15.384766 A 0.50004997 0.50004997 0 0 0 16.675781 15.384766 L 15.132812 16.925781 A 0.50004997 0.50004997 0 0 0 15.132812 17.632812 L 15.763672 18.263672 C 15.612853 18.551672 15.487393 18.849756 15.390625 19.160156 L 14.5 19.160156 A 0.50004997 0.50004997 0 0 0 14 19.660156 L 14 21.841797 A 0.50004997 0.50004997 0 0 0 14.5 22.341797 L 15.392578 22.341797 C 15.488578 22.652597 15.611568 22.951734 15.761719 23.240234 L 15.132812 23.869141 A 0.50004997 0.50004997 0 0 0 15.132812 24.576172 L 16.675781 26.117188 A 0.50004997 0.50004997 0 0 0 17.382812 26.117188 L 18.013672 25.488281 C 18.300725 25.638581 18.598932 25.760822 18.908203 25.857422 L 18.908203 26.75 A 0.50004997 0.50004997 0 0 0 19.408203 27.25 L 21.591797 27.25 A 0.50004997 0.50004997 0 0 0 22.091797 26.75 L 22.091797 25.857422 C 22.401829 25.761422 22.700383 25.639934 22.988281 25.490234 L 23.617188 26.117188 A 0.50004997 0.50004997 0 0 0 24.324219 26.117188 L 25.867188 24.576172 A 0.50004997 0.50004997 0 0 0 25.867188 23.869141 L 25.236328 23.238281 C 25.387151 22.950281 25.512611 22.652197 25.609375 22.341797 L 26.5 22.341797 A 0.50004997 0.50004997 0 0 0 27 21.841797 L 27 19.660156 A 0.50004997 0.50004997 0 0 0 26.5 19.160156 L 25.607422 19.160156 C 25.511422 18.849456 25.388428 18.550219 25.238281 18.261719 L 25.867188 17.632812 A 0.50004997 0.50004997 0 0 0 25.867188 16.925781 L 24.324219 15.384766 A 0.50004997 0.50004997 0 0 0 23.617188 15.384766 L 22.986328 16.013672 C 22.699174 15.863272 22.401195 15.741131 22.091797 15.644531 L 22.091797 14.75 A 0.50004997 0.50004997 0 0 0 21.591797 14.25 L 19.408203 14.25 z M 8.4199219 14.513672 C 7.5170023 14.513672 6.7753906 15.257156 6.7753906 16.160156 C 6.7753906 17.063056 7.5167377 17.806641 8.4199219 17.806641 C 9.3231004 17.806641 10.066406 17.063056 10.066406 16.160156 C 10.066406 15.257156 9.3228358 14.513672 8.4199219 14.513672 z M 19.908203 15.25 L 21.091797 15.25 L 21.091797 15.96875 A 0.50004997 0.50004997 0 0 0 21.480469 16.457031 C 21.963798 16.567131 22.423897 16.757984 22.84375 17.021484 A 0.50004997 0.50004997 0 0 0 23.462891 16.951172 L 23.970703 16.445312 L 24.806641 17.279297 L 24.300781 17.785156 A 0.50004997 0.50004997 0 0 0 24.230469 18.404297 C 24.492867 18.824997 24.682249 19.285731 24.791016 19.769531 A 0.50004997 0.50004997 0 0 0 25.279297 20.160156 L 26 20.160156 L 26 21.341797 L 25.28125 21.341797 A 0.50004997 0.50004997 0 0 0 24.792969 21.730469 C 24.682824 22.213769 24.492069 22.675903 24.228516 23.095703 A 0.50004997 0.50004997 0 0 0 24.298828 23.714844 L 24.806641 24.222656 L 23.970703 25.056641 L 23.464844 24.552734 A 0.50004997 0.50004997 0 0 0 22.847656 24.482422 C 22.426978 24.744722 21.9642 24.934169 21.480469 25.042969 A 0.50004997 0.50004997 0 0 0 21.091797 25.529297 L 21.091797 26.25 L 19.908203 26.25 L 19.908203 25.53125 A 0.50004997 0.50004997 0 0 0 19.519531 25.044922 C 19.036208 24.934822 18.576109 24.743969 18.15625 24.480469 A 0.50004997 0.50004997 0 0 0 17.537109 24.550781 L 17.029297 25.056641 L 16.193359 24.222656 L 16.699219 23.716797 A 0.50004997 0.50004997 0 0 0 16.769531 23.097656 C 16.507124 22.676956 16.317741 22.216122 16.208984 21.732422 A 0.50004997 0.50004997 0 0 0 15.720703 21.341797 L 15 21.341797 L 15 20.160156 L 15.71875 20.160156 A 0.50004997 0.50004997 0 0 0 16.207031 19.771484 C 16.317185 19.288184 16.50794 18.82605 16.771484 18.40625 A 0.50004997 0.50004997 0 0 0 16.701172 17.787109 L 16.193359 17.279297 L 17.029297 16.445312 L 17.535156 16.949219 A 0.50004997 0.50004997 0 0 0 18.152344 17.019531 C 18.573022 16.757131 19.0358 16.565831 19.519531 16.457031 A 0.50004997 0.50004997 0 0 0 19.908203 15.972656 L 19.908203 15.25 z M 8.4199219 15.513672 C 8.776648 15.513672 9.0664064 15.803356 9.0664062 16.160156 C 9.0664062 16.516856 8.7763833 16.806641 8.4199219 16.806641 C 8.0634461 16.806641 7.7753906 16.516856 7.7753906 16.160156 C 7.7753906 15.803256 8.0631814 15.513672 8.4199219 15.513672 z M 20.5 18.25 C 19.127896 18.25 18 19.3778 18 20.75 C 18 22.1221 19.127532 23.25 20.5 23.25 C 21.872468 23.25 23 22.1221 23 20.75 C 23 19.3778 21.872104 18.25 20.5 18.25 z M 20.5 19.25 C 21.325996 19.25 22 19.9239 22 20.75 C 22 21.5759 21.325632 22.25 20.5 22.25 C 19.674368 22.25 19 21.5759 19 20.75 C 19 19.9239 19.674004 19.25 20.5 19.25 z " color="#000" font-family="sans-serif" font-weight="400" overflow="visible" style="line-height:normal;text-indent:0;text-align:start;text-decoration-line:none;text-decoration-style:solid;text-decoration-color:#000;text-transform:none;block-progression:tb;isolation:auto;mix-blend-mode:normal"/></svg>