<svg width="375" height="504" viewBox="0 0 375 504" fill="none" xmlns="http://www.w3.org/2000/svg">
<g filter="url(#filter0_d_19_251)">
<path d="M271.375 206.5C271.372 217.47 268.736 228.257 263.717 237.835C258.698 247.414 251.462 255.467 242.699 261.228C233.935 266.989 223.933 270.267 213.645 270.75C203.357 271.234 193.124 268.907 183.918 263.991C180.066 261.916 176.43 259.414 173.072 256.526C173.202 255.939 173.267 255.338 173.266 254.734C173.266 252.602 172.471 250.558 171.055 249.05C169.64 247.542 167.72 246.695 165.719 246.695C165.152 246.693 164.588 246.763 164.037 246.902C162.224 244.525 160.58 242.007 159.121 239.368C152.448 227.416 149.592 213.483 150.98 199.656C152.368 185.829 157.926 172.854 166.82 162.676C175.715 152.497 187.467 145.664 200.315 143.2C213.163 140.736 226.414 142.774 238.083 149.009C241.934 151.084 245.57 153.586 248.928 156.474C248.798 157.061 248.733 157.662 248.734 158.266C248.734 160.398 249.53 162.442 250.945 163.95C252.36 165.458 254.28 166.305 256.281 166.305C256.848 166.307 257.412 166.237 257.963 166.098C259.777 168.475 261.42 170.993 262.879 173.632C268.452 183.567 271.389 194.927 271.375 206.5Z" fill="#DFEAF8"/>
<path d="M236.875 224.875H215.177C214.544 224.875 213.919 224.727 213.347 224.441C212.774 224.155 212.267 223.739 211.863 223.221L192.888 198.966C192.483 198.449 191.976 198.032 191.403 197.746C190.831 197.461 190.206 197.312 189.573 197.312H178.656V188.125H193.886C194.518 188.125 195.143 188.273 195.716 188.559C196.289 188.845 196.795 189.261 197.2 189.779L216.175 214.034C216.58 214.551 217.086 214.968 217.659 215.254C218.232 215.539 218.857 215.688 219.489 215.688H236.875V211.094L247.656 220.281L236.875 229.469V224.875Z" fill="#D99899"/>
<path d="M165.719 275.406C176.437 275.406 185.125 266.151 185.125 254.734C185.125 243.318 176.437 234.062 165.719 234.062C155.001 234.062 146.312 243.318 146.312 254.734C146.312 266.151 155.001 275.406 165.719 275.406Z" fill="#AECEF8"/>
<path d="M274.713 163.133L273.583 162.469C273.258 162.289 272.992 162.008 272.82 161.663C272.649 161.318 272.58 160.925 272.623 160.537C272.828 159.031 272.828 157.501 272.623 155.994C272.58 155.606 272.649 155.214 272.82 154.869C272.992 154.523 273.258 154.242 273.583 154.062L274.713 153.399C274.932 153.276 275.125 153.106 275.28 152.901C275.436 152.696 275.55 152.46 275.617 152.206C275.684 151.952 275.702 151.686 275.669 151.425C275.636 151.164 275.554 150.912 275.427 150.686L272.3 145.173C272.028 144.713 271.6 144.381 271.104 144.246C270.609 144.111 270.084 144.183 269.637 144.448L268.494 145.118C268.146 145.315 267.752 145.401 267.358 145.367C266.965 145.333 266.59 145.18 266.275 144.925C265.15 144.046 263.924 143.321 262.627 142.769C262.265 142.63 261.95 142.379 261.723 142.047C261.497 141.715 261.369 141.318 261.357 140.908V139.578C261.345 139.04 261.133 138.529 260.768 138.157C260.402 137.784 259.913 137.582 259.408 137.594H253.155C252.651 137.585 252.164 137.788 251.8 138.16C251.437 138.532 251.226 139.042 251.214 139.578V140.908C251.202 141.318 251.075 141.715 250.848 142.047C250.622 142.379 250.307 142.63 249.944 142.769C248.647 143.321 247.422 144.046 246.296 144.925C245.982 145.18 245.606 145.333 245.213 145.367C244.82 145.401 244.425 145.315 244.077 145.118L242.934 144.448C242.487 144.183 241.962 144.111 241.467 144.246C240.972 144.381 240.544 144.713 240.271 145.173L237.145 150.686C237.018 150.912 236.935 151.164 236.902 151.425C236.87 151.686 236.887 151.952 236.954 152.206C237.021 152.46 237.135 152.696 237.291 152.901C237.446 153.106 237.639 153.276 237.858 153.399L238.988 154.062C239.313 154.242 239.58 154.523 239.751 154.869C239.922 155.214 239.991 155.606 239.948 155.994C239.744 157.501 239.744 159.031 239.948 160.537C239.991 160.925 239.922 161.318 239.751 161.663C239.58 162.008 239.313 162.289 238.988 162.469L237.858 163.133C237.639 163.256 237.446 163.425 237.291 163.63C237.135 163.835 237.021 164.072 236.954 164.326C236.887 164.579 236.87 164.845 236.902 165.106C236.935 165.368 237.018 165.619 237.145 165.845L240.271 171.358C240.544 171.819 240.972 172.151 241.467 172.286C241.962 172.421 242.487 172.348 242.934 172.084L244.077 171.413C244.425 171.216 244.82 171.13 245.213 171.164C245.606 171.198 245.982 171.352 246.296 171.606C247.422 172.486 248.647 173.21 249.944 173.763C250.307 173.901 250.622 174.153 250.848 174.485C251.075 174.816 251.202 175.213 251.214 175.623V176.953C251.226 177.49 251.437 178 251.8 178.371C252.164 178.743 252.651 178.947 253.155 178.937H259.408C259.912 178.947 260.399 178.743 260.762 178.371C261.126 178 261.337 177.49 261.348 176.953V175.623C261.36 175.213 261.488 174.816 261.714 174.485C261.941 174.153 262.256 173.901 262.618 173.763C263.915 173.21 265.141 172.486 266.267 171.606C266.581 171.352 266.957 171.198 267.35 171.164C267.743 171.13 268.137 171.216 268.486 171.413L269.628 172.084C270.075 172.348 270.6 172.421 271.096 172.286C271.591 172.151 272.019 171.819 272.291 171.358L275.418 165.845C275.545 165.62 275.628 165.369 275.662 165.108C275.695 164.847 275.678 164.582 275.612 164.328C275.546 164.074 275.432 163.837 275.278 163.632C275.123 163.426 274.931 163.257 274.713 163.133ZM256.281 166.305C254.789 166.305 253.33 165.833 252.088 164.95C250.847 164.067 249.88 162.811 249.309 161.342C248.738 159.873 248.588 158.257 248.879 156.697C249.171 155.138 249.889 153.705 250.945 152.581C252 151.457 253.345 150.691 254.809 150.381C256.273 150.071 257.79 150.23 259.169 150.838C260.548 151.447 261.727 152.477 262.556 153.799C263.386 155.121 263.828 156.676 263.828 158.266C263.828 160.398 263.033 162.442 261.618 163.95C260.202 165.458 258.283 166.305 256.281 166.305Z" fill="#748CA6"/>
<path d="M228.25 197.312H219.489C218.857 197.312 218.232 197.461 217.659 197.746C217.086 198.032 216.58 198.449 216.175 198.966L197.2 223.221C196.795 223.739 196.289 224.155 195.716 224.441C195.143 224.727 194.518 224.875 193.886 224.875H178.656V215.688H189.573C190.206 215.688 190.831 215.539 191.403 215.254C191.976 214.968 192.483 214.551 192.888 214.034L211.863 189.779C212.267 189.261 212.774 188.845 213.347 188.559C213.919 188.273 214.544 188.125 215.177 188.125H228.25V183.531L239.031 192.719L228.25 201.906V197.312Z" fill="#8FCCC0"/>
<path d="M165.719 266.219C166.91 266.219 167.875 265.19 167.875 263.922C167.875 262.653 166.91 261.625 165.719 261.625C164.528 261.625 163.562 262.653 163.562 263.922C163.562 265.19 164.528 266.219 165.719 266.219Z" fill="#404040"/>
<path d="M165.719 247.844C167.75 247.831 169.756 248.334 171.568 249.312C173.38 250.291 174.947 251.716 176.138 253.469L179.62 250.763C178.021 248.435 175.928 246.541 173.513 245.236C171.097 243.93 168.427 243.25 165.719 243.25C163.01 243.25 160.34 243.93 157.925 245.236C155.509 246.541 153.417 248.435 151.817 250.763L155.3 253.469C156.491 251.716 158.058 250.291 159.87 249.312C161.682 248.334 163.687 247.831 165.719 247.844Z" fill="#404040"/>
<path d="M165.719 252.437C164.36 252.436 163.019 252.778 161.808 253.435C160.597 254.092 159.55 255.046 158.752 256.218L162.251 258.901C162.666 258.345 163.193 257.896 163.794 257.587C164.394 257.279 165.052 257.118 165.719 257.118C166.385 257.118 167.043 257.279 167.644 257.587C168.244 257.896 168.771 258.345 169.186 258.901L172.686 256.218C171.888 255.046 170.84 254.092 169.629 253.435C168.418 252.778 167.078 252.436 165.719 252.437Z" fill="#404040"/>
<path d="M165.719 277.703C169.983 277.703 174.152 276.356 177.698 273.832C181.244 271.308 184.008 267.721 185.64 263.524C187.272 259.327 187.699 254.709 186.867 250.253C186.035 245.798 183.981 241.705 180.966 238.493C177.95 235.281 174.108 233.093 169.925 232.207C165.743 231.321 161.407 231.776 157.467 233.514C153.527 235.252 150.16 238.196 147.79 241.974C145.421 245.751 144.156 250.192 144.156 254.734C144.163 260.824 146.436 266.662 150.479 270.968C154.521 275.274 160.002 277.696 165.719 277.703ZM165.719 236.359C169.13 236.359 172.466 237.437 175.302 239.456C178.139 241.475 180.35 244.345 181.656 247.703C182.961 251.06 183.303 254.755 182.637 258.319C181.972 261.884 180.329 265.158 177.916 267.727C175.504 270.297 172.43 272.047 169.084 272.756C165.738 273.465 162.269 273.101 159.117 271.711C155.965 270.32 153.271 267.965 151.376 264.943C149.48 261.921 148.469 258.369 148.469 254.734C148.474 249.863 150.293 245.192 153.527 241.747C156.761 238.303 161.145 236.365 165.719 236.359ZM234.852 163.764C234.712 164.312 234.678 164.884 234.752 165.446C234.827 166.008 235.007 166.548 235.284 167.033L238.408 172.545C238.972 173.51 239.861 174.209 240.893 174.498C241.925 174.786 243.022 174.643 243.958 174.098L245.004 173.464C246.253 174.435 247.609 175.241 249.041 175.864V176.955C249.054 178.104 249.495 179.2 250.267 180.002C251.039 180.805 252.078 181.248 253.157 181.234H259.41C260.487 181.245 261.525 180.801 262.295 179.998C263.065 179.196 263.505 178.101 263.518 176.953V175.86C264.937 175.262 266.265 174.441 267.457 173.425L268.6 174.096C269.535 174.642 270.632 174.785 271.664 174.497C272.696 174.209 273.585 173.51 274.148 172.545L277.277 167.033C277.553 166.548 277.734 166.009 277.808 165.447C277.882 164.885 277.848 164.314 277.708 163.767C277.568 163.208 277.323 162.686 276.987 162.231C276.651 161.777 276.232 161.401 275.754 161.125L274.795 160.562C274.98 159.038 274.98 157.494 274.795 155.969L275.754 155.404C276.232 155.128 276.651 154.752 276.987 154.298C277.323 153.843 277.568 153.321 277.708 152.762C277.849 152.215 277.883 151.643 277.809 151.081C277.735 150.519 277.553 149.979 277.277 149.494L274.152 143.981C273.59 143.015 272.7 142.315 271.668 142.026C270.635 141.738 269.538 141.882 268.602 142.429L267.556 143.063C266.307 142.092 264.951 141.286 263.52 140.662V139.578C263.507 138.43 263.066 137.333 262.295 136.531C261.523 135.728 260.484 135.284 259.406 135.297H253.153C252.075 135.286 251.038 135.73 250.268 136.533C249.498 137.336 249.058 138.431 249.045 139.578V140.672C247.627 141.27 246.3 142.09 245.11 143.106L243.967 142.436C243.031 141.889 241.935 141.746 240.903 142.034C239.871 142.323 238.982 143.021 238.419 143.986L235.29 149.498C235.014 149.983 234.834 150.523 234.76 151.084C234.685 151.646 234.719 152.217 234.859 152.765C235 153.323 235.245 153.846 235.582 154.3C235.918 154.754 236.337 155.13 236.815 155.406L237.774 155.971C237.589 157.496 237.589 159.04 237.774 160.565L236.815 161.13C236.337 161.404 235.917 161.779 235.579 162.232C235.242 162.685 234.995 163.206 234.852 163.764ZM241.942 158.266C241.942 157.615 241.987 156.964 242.076 156.32C242.178 155.471 242.037 154.608 241.67 153.846C241.303 153.084 240.728 152.458 240.021 152.05L239.158 151.55L242.005 146.533L243.02 147.128C243.73 147.536 244.534 147.72 245.338 147.659C246.143 147.597 246.914 147.293 247.561 146.781C248.541 146.016 249.608 145.384 250.735 144.902C251.499 144.596 252.159 144.051 252.627 143.338C253.096 142.626 253.352 141.78 253.362 140.91V139.891H259.201V140.908C259.211 141.777 259.467 142.623 259.935 143.335C260.403 144.047 261.062 144.593 261.825 144.9C262.953 145.383 264.021 146.015 265.001 146.781C265.647 147.292 266.415 147.596 267.217 147.658C268.019 147.721 268.821 147.538 269.529 147.133L270.545 146.538L273.389 151.554L272.537 152.055C271.829 152.462 271.253 153.088 270.886 153.851C270.519 154.614 270.379 155.477 270.482 156.327C270.572 156.969 270.618 157.617 270.62 158.266C270.62 158.917 270.576 159.567 270.487 160.211C270.384 161.061 270.526 161.923 270.893 162.685C271.259 163.448 271.834 164.074 272.542 164.481L273.404 164.982L270.56 169.998L269.544 169.403C268.836 168.998 268.035 168.815 267.233 168.877C266.431 168.939 265.662 169.242 265.016 169.752C264.036 170.518 262.97 171.149 261.842 171.631C261.078 171.938 260.419 172.483 259.95 173.195C259.482 173.907 259.226 174.754 259.216 175.623V176.641H253.362V175.623C253.352 174.754 253.096 173.908 252.628 173.196C252.16 172.484 251.501 171.939 250.738 171.631C249.609 171.148 248.542 170.516 247.561 169.75C246.916 169.239 246.147 168.935 245.345 168.873C244.543 168.811 243.741 168.993 243.033 169.399L242.018 169.993L239.171 164.977L240.034 164.476C240.742 164.07 241.318 163.443 241.685 162.681C242.052 161.918 242.193 161.054 242.089 160.204C241.997 159.563 241.948 158.915 241.942 158.266Z" fill="#404040"/>
<path d="M256.281 168.602C258.2 168.602 260.076 167.995 261.672 166.86C263.268 165.724 264.511 164.11 265.246 162.221C265.98 160.332 266.172 158.254 265.798 156.249C265.424 154.244 264.499 152.403 263.142 150.957C261.785 149.512 260.056 148.527 258.174 148.128C256.292 147.729 254.341 147.934 252.568 148.716C250.795 149.499 249.28 150.824 248.213 152.523C247.147 154.223 246.578 156.221 246.578 158.266C246.581 161.006 247.604 163.633 249.423 165.571C251.242 167.509 253.709 168.599 256.281 168.602ZM256.281 152.523C257.347 152.523 258.39 152.86 259.276 153.491C260.163 154.122 260.854 155.019 261.262 156.068C261.67 157.117 261.776 158.272 261.568 159.386C261.36 160.5 260.847 161.523 260.093 162.326C259.339 163.129 258.379 163.676 257.333 163.897C256.287 164.119 255.203 164.005 254.218 163.571C253.233 163.136 252.391 162.4 251.799 161.456C251.207 160.512 250.891 159.401 250.891 158.266C250.891 156.743 251.459 155.282 252.47 154.205C253.48 153.128 254.852 152.523 256.281 152.523ZM241.642 259.239C240.474 260.01 239.271 260.75 238.037 261.434L240.045 265.502C241.358 264.767 242.66 263.972 243.926 263.146L241.642 259.239ZM267.088 189.818C267.459 191.23 267.785 192.677 268.059 194.118L272.285 193.199C271.992 191.648 271.638 190.093 271.243 188.575L267.088 189.818ZM273.428 202.627C273.344 201.056 273.212 199.467 273.016 197.896L268.738 198.482C268.915 199.945 269.044 201.426 269.122 202.887L273.428 202.627ZM257.004 244.516L260.41 247.332C261.32 246.082 262.2 244.787 263.02 243.477L259.436 240.923C258.67 242.143 257.853 243.351 257.004 244.516ZM261.622 237.156L265.368 239.43C266.099 238.052 266.795 236.646 267.438 235.216L263.556 233.233C262.951 234.563 262.302 235.884 261.622 237.156ZM270.7 226.368L266.584 225.001C266.174 226.402 265.711 227.806 265.206 229.175L269.219 230.847C269.762 229.381 270.26 227.875 270.7 226.368ZM245.09 256.776L247.617 260.497C248.812 259.578 249.989 258.598 251.136 257.578L248.368 254.057C247.303 255.005 246.201 255.92 245.09 256.776ZM201.776 267.742C200.413 267.512 199.041 267.222 197.698 266.889L196.719 271.361C198.16 271.722 199.634 272.028 201.096 272.28L201.776 267.742ZM236.025 267.56L234.3 263.35C233.039 263.938 231.741 264.485 230.443 264.976L231.885 269.306C233.278 268.777 234.671 268.192 236.025 267.56ZM210.012 273.109L209.984 268.516C208.62 268.488 207.246 268.412 205.888 268.286L205.523 272.857C206.97 272.99 208.445 273.07 209.836 273.086L210.012 273.109ZM218.331 268.029C216.969 268.212 215.578 268.343 214.196 268.424L214.426 273.017C215.912 272.933 217.406 272.788 218.87 272.593L218.331 268.029ZM226.48 266.301C225.151 266.69 223.791 267.032 222.439 267.321L223.282 271.825C224.735 271.518 226.195 271.136 227.623 270.73L226.48 266.301ZM251.458 251.096L254.451 254.399C255.509 253.313 256.551 252.162 257.547 250.979L254.341 247.908C253.411 249.011 252.441 250.083 251.458 251.096ZM170.463 161.998L167.444 158.7C166.385 159.793 165.346 160.946 164.354 162.127L167.567 165.191C168.502 164.09 169.468 163.016 170.463 161.998ZM164.919 168.602L161.505 165.783C160.598 167.037 159.72 168.337 158.905 169.644L162.495 172.189C163.254 170.972 164.071 169.761 164.919 168.602ZM176.808 156.302L174.273 152.585C173.074 153.504 171.89 154.499 170.758 155.514L173.535 159.028C174.59 158.084 175.691 157.165 176.808 156.302ZM160.317 175.952L156.568 173.685C155.835 175.063 155.14 176.482 154.504 177.904L158.398 179.879C158.989 178.563 159.636 177.242 160.317 175.952ZM191.441 148.07L189.994 143.742C188.603 144.271 187.21 144.861 185.85 145.497L187.575 149.703C188.851 149.11 190.149 148.561 191.441 148.07ZM156.747 183.952L152.73 182.282C152.193 183.747 151.699 185.268 151.259 186.768L155.369 188.125C155.787 186.719 156.246 185.316 156.747 183.952ZM207.673 144.583L207.429 139.989C205.946 140.079 204.451 140.219 202.99 140.426L203.537 144.98C204.898 144.804 206.291 144.666 207.673 144.583ZM183.851 151.628L181.837 147.564C180.53 148.299 179.23 149.096 177.971 149.933L180.252 153.837C181.425 153.052 182.635 152.312 183.851 151.628ZM225.149 141.604C223.705 141.25 222.232 140.945 220.77 140.701L220.102 145.24C221.462 145.47 222.834 145.75 224.179 146.081L225.149 141.604ZM152.781 205.416C152.805 203.978 152.874 202.536 152.997 201.134L148.702 200.735C148.578 202.243 148.506 203.79 148.486 205.377L150.642 205.517L152.781 205.416ZM273.531 207.678V207.373L269.219 207.315V207.582C269.193 209.052 269.122 210.54 269.003 212.003L273.298 212.403C273.417 210.834 273.495 209.24 273.531 207.678ZM199.436 145.706L198.589 141.202C197.14 141.512 195.68 141.891 194.246 142.309L195.4 146.733C196.732 146.34 198.091 145.996 199.436 145.706ZM272.738 217.121L268.481 216.393C268.266 217.847 267.992 219.307 267.677 220.734L271.875 221.783C272.214 220.249 272.503 218.673 272.738 217.121ZM154.291 192.397L150.09 191.357C149.756 192.889 149.469 194.457 149.228 196.022L153.489 196.738C153.715 195.282 153.982 193.821 154.291 192.397ZM148.564 210.232C148.646 211.808 148.779 213.4 148.967 214.964L153.245 214.385C153.072 212.929 152.945 211.447 152.87 209.98L148.564 210.232ZM154.877 223.054C154.511 221.641 154.187 220.192 153.915 218.749L149.687 219.652C149.98 221.202 150.334 222.76 150.72 224.278L154.877 223.054ZM215.977 144.714L216.343 140.134C214.939 140.008 213.51 139.93 212.089 139.904H211.893L212.016 144.498C213.351 144.521 214.671 144.593 215.977 144.714ZM176.5 197.312C176.5 197.922 176.727 198.506 177.132 198.937C177.536 199.367 178.084 199.609 178.656 199.609H189.571C189.888 199.609 190.2 199.683 190.487 199.826C190.773 199.969 191.027 200.177 191.229 200.436L195.971 206.5L191.227 212.561C191.025 212.82 190.772 213.028 190.486 213.171C190.199 213.314 189.887 213.388 189.571 213.388H178.656C178.084 213.388 177.536 213.63 177.132 214.061C176.727 214.492 176.5 215.076 176.5 215.685V224.873C176.5 225.482 176.727 226.066 177.132 226.497C177.536 226.928 178.084 227.17 178.656 227.17H193.886C194.833 227.169 195.768 226.947 196.625 226.518C197.482 226.089 198.24 225.465 198.845 224.689L204.531 217.438L210.207 224.691C210.812 225.467 211.57 226.091 212.427 226.52C213.284 226.949 214.219 227.171 215.166 227.172H234.719V229.469C234.719 229.902 234.833 230.326 235.049 230.692C235.266 231.058 235.575 231.352 235.941 231.54C236.307 231.727 236.716 231.801 237.119 231.752C237.523 231.703 237.906 231.533 238.223 231.263L249.004 222.075C249.257 221.86 249.46 221.587 249.601 221.276C249.741 220.966 249.814 220.626 249.814 220.281C249.814 219.937 249.741 219.597 249.601 219.286C249.46 218.976 249.257 218.703 249.004 218.487L238.223 209.3C237.906 209.029 237.523 208.86 237.119 208.811C236.716 208.762 236.307 208.835 235.941 209.023C235.575 209.21 235.266 209.504 235.049 209.87C234.833 210.237 234.719 210.661 234.719 211.094V213.391H219.489C219.173 213.39 218.861 213.316 218.575 213.173C218.289 213.031 218.035 212.822 217.833 212.564L213.092 206.5L217.835 200.439C218.038 200.18 218.291 199.972 218.577 199.829C218.863 199.686 219.175 199.612 219.491 199.612H226.094V201.909C226.094 202.341 226.208 202.765 226.424 203.132C226.641 203.498 226.95 203.792 227.316 203.98C227.682 204.167 228.091 204.241 228.494 204.191C228.898 204.142 229.281 203.973 229.598 203.702L240.379 194.515C240.632 194.3 240.835 194.027 240.976 193.716C241.116 193.406 241.189 193.066 241.189 192.721C241.189 192.376 241.116 192.036 240.976 191.726C240.835 191.415 240.632 191.142 240.379 190.927L229.598 181.74C229.281 181.469 228.898 181.3 228.495 181.251C228.091 181.202 227.683 181.275 227.317 181.462C226.951 181.649 226.642 181.943 226.425 182.309C226.209 182.675 226.094 183.099 226.094 183.531V185.828H215.177C214.23 185.829 213.295 186.051 212.438 186.48C211.58 186.908 210.822 187.533 210.217 188.309L204.531 195.562L198.856 188.309C198.251 187.533 197.493 186.908 196.636 186.48C195.779 186.051 194.844 185.829 193.897 185.828H178.656C178.084 185.828 177.536 186.07 177.132 186.501C176.727 186.932 176.5 187.516 176.5 188.125V197.312ZM214.519 215.504C215.124 216.279 215.882 216.904 216.739 217.332C217.596 217.761 218.532 217.984 219.478 217.984H236.875C237.419 217.986 237.943 217.769 238.343 217.376C238.743 216.983 238.989 216.444 239.031 215.867L244.206 220.281L239.031 224.696C238.989 224.118 238.743 223.579 238.343 223.186C237.943 222.794 237.419 222.576 236.875 222.578H215.177C214.861 222.578 214.548 222.504 214.262 222.361C213.976 222.218 213.723 222.01 213.521 221.751L207.334 213.85L210.28 210.085L214.519 215.504ZM213.521 191.249C213.723 190.99 213.976 190.782 214.262 190.639C214.548 190.496 214.861 190.422 215.177 190.422H228.25C228.794 190.424 229.318 190.206 229.718 189.814C230.118 189.421 230.364 188.882 230.406 188.304L235.581 192.719L230.406 197.133C230.364 196.556 230.118 196.017 229.718 195.624C229.318 195.231 228.794 195.014 228.25 195.016H219.489C218.542 195.016 217.607 195.239 216.75 195.667C215.893 196.096 215.135 196.72 214.53 197.496L195.555 221.751C195.353 222.01 195.099 222.218 194.813 222.361C194.527 222.504 194.215 222.578 193.899 222.578H180.813V217.984H189.573C190.52 217.984 191.455 217.761 192.313 217.333C193.17 216.904 193.928 216.28 194.533 215.504L213.521 191.249ZM180.813 190.422H193.886C194.202 190.422 194.514 190.496 194.8 190.639C195.086 190.782 195.34 190.99 195.542 191.249L201.728 199.15L198.783 202.915L194.544 197.496C193.937 196.719 193.177 196.094 192.317 195.665C191.458 195.236 190.52 195.014 189.571 195.016H180.813V190.422Z" fill="#404040"/>
</g>
<g filter="url(#filter1_d_19_251)">
<path d="M418.375 424.5C418.372 435.47 415.736 446.257 410.717 455.835C405.698 465.414 398.462 473.467 389.699 479.228C380.935 484.989 370.933 488.267 360.645 488.75C350.357 489.234 340.124 486.907 330.918 481.991C327.066 479.916 323.43 477.414 320.072 474.526C320.202 473.939 320.267 473.338 320.266 472.734C320.266 470.602 319.471 468.558 318.055 467.05C316.64 465.542 314.72 464.695 312.719 464.695C312.152 464.693 311.588 464.763 311.037 464.902C309.224 462.525 307.58 460.007 306.121 457.368C299.448 445.416 296.592 431.483 297.98 417.656C299.368 403.829 304.926 390.854 313.82 380.676C322.715 370.497 334.467 363.664 347.315 361.2C360.163 358.736 373.414 360.774 385.083 367.009C388.934 369.084 392.57 371.586 395.928 374.474C395.798 375.061 395.733 375.662 395.734 376.266C395.734 378.398 396.53 380.442 397.945 381.95C399.36 383.458 401.28 384.305 403.281 384.305C403.848 384.307 404.412 384.237 404.963 384.098C406.777 386.475 408.42 388.993 409.879 391.632C415.452 401.567 418.389 412.927 418.375 424.5Z" fill="#DFEAF8"/>
<path d="M383.875 442.875H362.177C361.544 442.875 360.919 442.727 360.347 442.441C359.774 442.155 359.267 441.739 358.863 441.221L339.888 416.966C339.483 416.449 338.976 416.032 338.403 415.746C337.831 415.461 337.206 415.312 336.573 415.312H325.656V406.125H340.886C341.518 406.125 342.143 406.273 342.716 406.559C343.289 406.845 343.795 407.261 344.2 407.779L363.175 432.034C363.58 432.551 364.086 432.968 364.659 433.254C365.232 433.539 365.857 433.688 366.489 433.688H383.875V429.094L394.656 438.281L383.875 447.469V442.875Z" fill="#D99899"/>
<path d="M312.719 493.406C323.437 493.406 332.125 484.151 332.125 472.734C332.125 461.318 323.437 452.062 312.719 452.062C302.001 452.062 293.312 461.318 293.312 472.734C293.312 484.151 302.001 493.406 312.719 493.406Z" fill="#AECEF8"/>
<path d="M375.25 415.312H366.489C365.857 415.312 365.232 415.461 364.659 415.746C364.086 416.032 363.58 416.449 363.175 416.966L344.2 441.221C343.795 441.739 343.289 442.155 342.716 442.441C342.143 442.727 341.518 442.875 340.886 442.875H325.656V433.688H336.573C337.206 433.688 337.831 433.539 338.403 433.254C338.976 432.968 339.483 432.551 339.888 432.034L358.863 407.779C359.267 407.261 359.774 406.845 360.347 406.559C360.919 406.273 361.544 406.125 362.177 406.125H375.25V401.531L386.031 410.719L375.25 419.906V415.312Z" fill="#8FCCC0"/>
<path d="M312.719 484.219C313.91 484.219 314.875 483.19 314.875 481.922C314.875 480.653 313.91 479.625 312.719 479.625C311.528 479.625 310.562 480.653 310.562 481.922C310.562 483.19 311.528 484.219 312.719 484.219Z" fill="#404040"/>
<path d="M312.719 465.844C314.75 465.83 316.756 466.334 318.568 467.312C320.38 468.291 321.947 469.716 323.138 471.469L326.62 468.763C325.021 466.435 322.928 464.541 320.513 463.236C318.097 461.93 315.427 461.25 312.719 461.25C310.01 461.25 307.34 461.93 304.925 463.236C302.509 464.541 300.417 466.435 298.817 468.763L302.3 471.469C303.491 469.716 305.058 468.291 306.87 467.312C308.682 466.334 310.687 465.83 312.719 465.844Z" fill="#404040"/>
<path d="M312.719 470.438C311.36 470.436 310.019 470.778 308.808 471.435C307.597 472.092 306.55 473.046 305.752 474.218L309.251 476.901C309.666 476.345 310.193 475.896 310.794 475.587C311.394 475.279 312.052 475.119 312.719 475.119C313.385 475.119 314.043 475.279 314.644 475.587C315.244 475.896 315.771 476.345 316.186 476.901L319.686 474.218C318.888 473.046 317.84 472.092 316.629 471.435C315.418 470.778 314.078 470.436 312.719 470.438Z" fill="#404040"/>
<path d="M312.719 495.703C316.983 495.703 321.152 494.356 324.698 491.832C328.244 489.308 331.008 485.721 332.64 481.524C334.272 477.327 334.699 472.709 333.867 468.253C333.035 463.798 330.981 459.705 327.966 456.493C324.95 453.281 321.108 451.093 316.925 450.207C312.743 449.321 308.407 449.776 304.467 451.514C300.527 453.252 297.16 456.196 294.79 459.974C292.421 463.751 291.156 468.192 291.156 472.734C291.163 478.824 293.436 484.662 297.479 488.968C301.521 493.274 307.002 495.696 312.719 495.703ZM312.719 454.359C316.13 454.359 319.466 455.437 322.302 457.456C325.139 459.475 327.35 462.345 328.656 465.703C329.961 469.06 330.303 472.755 329.637 476.319C328.972 479.884 327.329 483.158 324.916 485.727C322.504 488.297 319.43 490.047 316.084 490.756C312.738 491.465 309.269 491.101 306.117 489.711C302.965 488.32 300.271 485.965 298.376 482.943C296.48 479.921 295.469 476.369 295.469 472.734C295.474 467.863 297.293 463.192 300.527 459.747C303.761 456.303 308.145 454.365 312.719 454.359ZM381.852 381.764C381.712 382.312 381.678 382.884 381.752 383.446C381.827 384.008 382.007 384.548 382.284 385.033L385.408 390.545C385.972 391.51 386.861 392.209 387.893 392.498C388.925 392.786 390.022 392.643 390.958 392.098L392.004 391.464C393.253 392.435 394.609 393.241 396.041 393.864V394.955C396.054 396.104 396.495 397.2 397.267 398.002C398.039 398.805 399.078 399.248 400.157 399.234H406.41C407.487 399.245 408.525 398.801 409.295 397.998C410.065 397.196 410.505 396.101 410.518 394.953V393.86C411.937 393.262 413.265 392.441 414.457 391.425L415.6 392.096C416.535 392.642 417.632 392.785 418.664 392.497C419.696 392.209 420.585 391.51 421.148 390.545L424.277 385.033C424.553 384.548 424.734 384.009 424.808 383.447C424.882 382.885 424.848 382.314 424.708 381.767C424.568 381.208 424.323 380.686 423.987 380.231C423.651 379.777 423.232 379.401 422.754 379.125L421.795 378.562C421.98 377.038 421.98 375.494 421.795 373.969L422.754 373.404C423.232 373.128 423.651 372.752 423.987 372.298C424.323 371.843 424.568 371.321 424.708 370.762C424.849 370.215 424.883 369.643 424.809 369.081C424.735 368.519 424.553 367.979 424.277 367.494L421.152 361.981C420.59 361.015 419.7 360.315 418.668 360.026C417.635 359.738 416.538 359.882 415.602 360.429L414.556 361.063C413.307 360.092 411.951 359.286 410.52 358.662V357.578C410.507 356.43 410.066 355.333 409.295 354.531C408.523 353.728 407.484 353.284 406.406 353.297H400.153C399.075 353.286 398.038 353.73 397.268 354.533C396.498 355.336 396.058 356.431 396.045 357.578V358.672C394.627 359.27 393.3 360.09 392.11 361.106L390.967 360.436C390.031 359.889 388.935 359.746 387.903 360.034C386.871 360.323 385.982 361.021 385.419 361.986L382.29 367.498C382.014 367.983 381.834 368.523 381.76 369.084C381.685 369.646 381.719 370.217 381.859 370.765C382 371.323 382.245 371.846 382.582 372.3C382.918 372.754 383.337 373.13 383.815 373.406L384.774 373.971C384.589 375.496 384.589 377.04 384.774 378.565L383.815 379.13C383.337 379.404 382.917 379.779 382.579 380.232C382.242 380.685 381.995 381.206 381.852 381.764ZM388.942 376.266C388.942 375.615 388.987 374.964 389.076 374.32C389.178 373.471 389.037 372.608 388.67 371.846C388.303 371.084 387.728 370.458 387.021 370.05L386.158 369.55L389.005 364.533L390.02 365.128C390.73 365.536 391.534 365.72 392.338 365.659C393.143 365.597 393.914 365.293 394.561 364.781C395.541 364.016 396.608 363.384 397.735 362.902C398.499 362.596 399.159 362.051 399.627 361.338C400.096 360.626 400.352 359.78 400.362 358.91V357.891H406.201V358.908C406.211 359.777 406.467 360.623 406.935 361.335C407.403 362.047 408.062 362.593 408.825 362.9C409.953 363.383 411.021 364.015 412.001 364.781C412.647 365.292 413.415 365.596 414.217 365.658C415.019 365.721 415.821 365.538 416.529 365.133L417.545 364.538L420.389 369.554L419.537 370.055C418.829 370.462 418.253 371.088 417.886 371.851C417.519 372.614 417.379 373.477 417.482 374.327C417.572 374.969 417.618 375.617 417.62 376.266C417.62 376.917 417.576 377.567 417.487 378.211C417.384 379.061 417.526 379.923 417.893 380.685C418.259 381.448 418.834 382.074 419.542 382.481L420.404 382.982L417.56 387.998L416.544 387.403C415.836 386.998 415.035 386.815 414.233 386.877C413.431 386.939 412.662 387.242 412.016 387.752C411.036 388.518 409.97 389.149 408.842 389.631C408.078 389.938 407.419 390.483 406.95 391.195C406.482 391.907 406.226 392.754 406.216 393.623V394.641H400.362V393.623C400.352 392.754 400.096 391.908 399.628 391.196C399.16 390.484 398.501 389.939 397.738 389.631C396.609 389.148 395.542 388.516 394.561 387.75C393.916 387.239 393.147 386.935 392.345 386.873C391.543 386.811 390.741 386.993 390.033 387.399L389.018 387.993L386.171 382.977L387.034 382.476C387.742 382.07 388.318 381.443 388.685 380.681C389.052 379.918 389.193 379.054 389.089 378.204C388.997 377.563 388.948 376.915 388.942 376.266Z" fill="#404040"/>
<path d="M403.281 386.602C405.2 386.602 407.076 385.995 408.672 384.86C410.268 383.724 411.511 382.11 412.246 380.221C412.98 378.332 413.172 376.254 412.798 374.249C412.424 372.244 411.499 370.403 410.142 368.957C408.785 367.512 407.056 366.527 405.174 366.128C403.292 365.729 401.341 365.934 399.568 366.716C397.795 367.499 396.28 368.824 395.213 370.523C394.147 372.223 393.578 374.221 393.578 376.266C393.581 379.006 394.604 381.633 396.423 383.571C398.242 385.509 400.709 386.599 403.281 386.602ZM403.281 370.523C404.347 370.523 405.39 370.86 406.276 371.491C407.163 372.122 407.854 373.019 408.262 374.068C408.67 375.117 408.776 376.272 408.568 377.386C408.36 378.5 407.847 379.523 407.093 380.326C406.339 381.129 405.379 381.676 404.333 381.897C403.287 382.119 402.203 382.005 401.218 381.571C400.233 381.136 399.391 380.4 398.799 379.456C398.207 378.512 397.891 377.401 397.891 376.266C397.891 374.743 398.459 373.282 399.47 372.205C400.48 371.128 401.852 370.523 403.281 370.523ZM388.642 477.239C387.474 478.01 386.271 478.75 385.037 479.434L387.045 483.502C388.358 482.767 389.66 481.972 390.926 481.146L388.642 477.239ZM414.088 407.818C414.459 409.23 414.785 410.677 415.059 412.118L419.285 411.199C418.992 409.648 418.638 408.093 418.243 406.575L414.088 407.818ZM420.428 420.627C420.344 419.056 420.212 417.467 420.016 415.896L415.738 416.482C415.915 417.945 416.044 419.426 416.122 420.887L420.428 420.627ZM404.004 462.516L407.41 465.332C408.32 464.082 409.2 462.787 410.02 461.477L406.436 458.923C405.67 460.143 404.853 461.351 404.004 462.516ZM408.622 455.156L412.368 457.43C413.099 456.052 413.795 454.646 414.438 453.216L410.556 451.233C409.951 452.563 409.302 453.884 408.622 455.156ZM417.7 444.368L413.584 443.001C413.174 444.402 412.711 445.806 412.206 447.175L416.219 448.847C416.762 447.381 417.26 445.875 417.7 444.368ZM392.09 474.776L394.617 478.497C395.812 477.578 396.989 476.598 398.136 475.578L395.368 472.057C394.303 473.005 393.201 473.92 392.09 474.776ZM348.776 485.742C347.413 485.512 346.041 485.222 344.698 484.889L343.719 489.361C345.16 489.722 346.634 490.028 348.096 490.28L348.776 485.742ZM383.025 485.56L381.3 481.35C380.039 481.938 378.741 482.485 377.443 482.976L378.885 487.306C380.278 486.777 381.671 486.192 383.025 485.56ZM357.012 491.109L356.984 486.516C355.62 486.488 354.246 486.412 352.888 486.286L352.523 490.857C353.97 490.99 355.445 491.07 356.836 491.086L357.012 491.109ZM365.331 486.029C363.969 486.212 362.578 486.343 361.196 486.424L361.426 491.017C362.912 490.933 364.406 490.788 365.87 490.593L365.331 486.029ZM373.48 484.301C372.151 484.69 370.791 485.032 369.439 485.321L370.282 489.825C371.735 489.518 373.195 489.136 374.623 488.73L373.48 484.301ZM398.458 469.096L401.451 472.399C402.509 471.313 403.551 470.162 404.547 468.979L401.341 465.908C400.411 467.011 399.441 468.083 398.458 469.096ZM317.463 379.998L314.444 376.7C313.385 377.793 312.346 378.946 311.354 380.127L314.567 383.191C315.502 382.09 316.468 381.016 317.463 379.998ZM311.919 386.602L308.505 383.783C307.598 385.037 306.72 386.337 305.905 387.644L309.495 390.189C310.254 388.972 311.071 387.761 311.919 386.602ZM323.808 374.302L321.273 370.585C320.074 371.504 318.89 372.499 317.758 373.514L320.535 377.028C321.59 376.084 322.691 375.165 323.808 374.302ZM307.317 393.952L303.568 391.685C302.835 393.063 302.14 394.482 301.504 395.904L305.398 397.879C305.989 396.563 306.636 395.242 307.317 393.952ZM338.441 366.07L336.994 361.742C335.603 362.271 334.21 362.861 332.85 363.497L334.575 367.703C335.851 367.11 337.149 366.561 338.441 366.07ZM303.747 401.952L299.73 400.282C299.193 401.747 298.699 403.268 298.259 404.768L302.369 406.125C302.787 404.719 303.246 403.316 303.747 401.952ZM354.673 362.583L354.429 357.989C352.946 358.079 351.451 358.219 349.99 358.426L350.537 362.98C351.898 362.804 353.291 362.666 354.673 362.583ZM330.851 369.628L328.837 365.564C327.53 366.299 326.23 367.096 324.971 367.933L327.252 371.837C328.425 371.052 329.635 370.312 330.851 369.628ZM372.149 359.604C370.705 359.25 369.232 358.945 367.77 358.701L367.102 363.24C368.462 363.47 369.834 363.75 371.179 364.081L372.149 359.604ZM299.781 423.416C299.805 421.978 299.874 420.536 299.997 419.134L295.702 418.735C295.578 420.243 295.506 421.79 295.486 423.377L297.642 423.517L299.781 423.416ZM420.531 425.678V425.373L416.219 425.315V425.582C416.193 427.052 416.122 428.54 416.003 430.003L420.298 430.403C420.417 428.834 420.495 427.24 420.531 425.678ZM346.436 363.706L345.589 359.202C344.14 359.512 342.68 359.891 341.246 360.309L342.4 364.733C343.732 364.34 345.091 363.996 346.436 363.706ZM419.738 435.121L415.481 434.393C415.266 435.847 414.992 437.307 414.677 438.734L418.875 439.783C419.214 438.249 419.503 436.673 419.738 435.121ZM301.291 410.397L297.09 409.357C296.756 410.889 296.469 412.457 296.228 414.022L300.489 414.738C300.715 413.282 300.982 411.821 301.291 410.397ZM295.564 428.232C295.646 429.808 295.779 431.4 295.967 432.964L300.245 432.385C300.072 430.929 299.945 429.447 299.87 427.98L295.564 428.232ZM301.877 441.054C301.511 439.641 301.187 438.192 300.915 436.749L296.687 437.652C296.98 439.202 297.334 440.76 297.72 442.278L301.877 441.054ZM362.977 362.714L363.343 358.134C361.939 358.008 360.51 357.93 359.089 357.904H358.893L359.016 362.498C360.351 362.521 361.671 362.593 362.977 362.714ZM323.5 415.312C323.5 415.922 323.727 416.506 324.132 416.937C324.536 417.367 325.084 417.609 325.656 417.609H336.571C336.888 417.609 337.2 417.683 337.487 417.826C337.773 417.969 338.027 418.177 338.229 418.436L342.971 424.5L338.227 430.561C338.025 430.82 337.772 431.028 337.486 431.171C337.199 431.314 336.887 431.388 336.571 431.388H325.656C325.084 431.388 324.536 431.63 324.132 432.061C323.727 432.492 323.5 433.076 323.5 433.685V442.873C323.5 443.482 323.727 444.066 324.132 444.497C324.536 444.928 325.084 445.17 325.656 445.17H340.886C341.833 445.169 342.768 444.947 343.625 444.518C344.482 444.089 345.24 443.465 345.845 442.689L351.531 435.438L357.207 442.691C357.812 443.467 358.57 444.091 359.427 444.52C360.284 444.949 361.219 445.171 362.166 445.172H381.719V447.469C381.719 447.902 381.833 448.326 382.049 448.692C382.266 449.058 382.575 449.352 382.941 449.54C383.307 449.727 383.716 449.801 384.119 449.752C384.523 449.703 384.906 449.533 385.223 449.263L396.004 440.075C396.257 439.86 396.46 439.587 396.601 439.276C396.741 438.966 396.814 438.626 396.814 438.281C396.814 437.937 396.741 437.597 396.601 437.286C396.46 436.976 396.257 436.703 396.004 436.487L385.223 427.3C384.906 427.029 384.523 426.86 384.119 426.811C383.716 426.762 383.307 426.835 382.941 427.023C382.575 427.21 382.266 427.504 382.049 427.87C381.833 428.237 381.719 428.661 381.719 429.094V431.391H366.489C366.173 431.39 365.861 431.316 365.575 431.173C365.289 431.031 365.035 430.822 364.833 430.564L360.092 424.5L364.835 418.439C365.038 418.18 365.291 417.972 365.577 417.829C365.863 417.686 366.175 417.612 366.491 417.612H373.094V419.909C373.094 420.341 373.208 420.765 373.424 421.132C373.641 421.498 373.95 421.792 374.316 421.98C374.682 422.167 375.091 422.241 375.494 422.191C375.898 422.142 376.281 421.973 376.598 421.702L387.379 412.515C387.632 412.3 387.835 412.027 387.976 411.716C388.116 411.406 388.189 411.066 388.189 410.721C388.189 410.376 388.116 410.036 387.976 409.726C387.835 409.415 387.632 409.142 387.379 408.927L376.598 399.74C376.281 399.469 375.898 399.3 375.495 399.251C375.091 399.202 374.683 399.275 374.317 399.462C373.951 399.649 373.642 399.943 373.425 400.309C373.209 400.675 373.094 401.099 373.094 401.531V403.828H362.177C361.23 403.829 360.295 404.051 359.438 404.48C358.58 404.908 357.822 405.533 357.217 406.309L351.531 413.562L345.856 406.309C345.251 405.533 344.493 404.908 343.636 404.48C342.779 404.051 341.844 403.829 340.897 403.828H325.656C325.084 403.828 324.536 404.07 324.132 404.501C323.727 404.932 323.5 405.516 323.5 406.125V415.312ZM361.519 433.504C362.124 434.279 362.882 434.904 363.739 435.332C364.596 435.761 365.532 435.984 366.478 435.984H383.875C384.419 435.986 384.943 435.769 385.343 435.376C385.743 434.983 385.989 434.444 386.031 433.867L391.206 438.281L386.031 442.696C385.989 442.118 385.743 441.579 385.343 441.186C384.943 440.794 384.419 440.576 383.875 440.578H362.177C361.861 440.578 361.548 440.504 361.262 440.361C360.976 440.218 360.723 440.01 360.521 439.751L354.334 431.85L357.28 428.085L361.519 433.504ZM360.521 409.249C360.723 408.99 360.976 408.782 361.262 408.639C361.548 408.496 361.861 408.422 362.177 408.422H375.25C375.794 408.424 376.318 408.206 376.718 407.814C377.118 407.421 377.364 406.882 377.406 406.304L382.581 410.719L377.406 415.133C377.364 414.556 377.118 414.017 376.718 413.624C376.318 413.231 375.794 413.014 375.25 413.016H366.489C365.542 413.016 364.607 413.239 363.75 413.667C362.893 414.096 362.135 414.72 361.53 415.496L342.555 439.751C342.353 440.01 342.099 440.218 341.813 440.361C341.527 440.504 341.215 440.578 340.899 440.578H327.813V435.984H336.573C337.52 435.984 338.455 435.761 339.313 435.333C340.17 434.904 340.928 434.28 341.533 433.504L360.521 409.249ZM327.813 408.422H340.886C341.202 408.422 341.514 408.496 341.8 408.639C342.086 408.782 342.34 408.99 342.542 409.249L348.728 417.15L345.783 420.915L341.544 415.496C340.937 414.719 340.177 414.094 339.317 413.665C338.458 413.236 337.52 413.014 336.571 413.016H327.813V408.422Z" fill="#404040"/>
</g>
<g filter="url(#filter2_d_19_251)">
<path d="M68.375 73.5C68.3721 84.4698 65.7358 95.2567 60.7167 104.835C55.6976 114.414 48.4623 122.467 39.6985 128.228C30.9347 133.989 20.9335 137.267 10.6453 137.75C0.357075 138.234 -9.87634 135.907 -19.0825 130.991C-22.9342 128.916 -26.5696 126.414 -29.9284 123.526C-29.7976 122.939 -29.7325 122.338 -29.7344 121.734C-29.7344 119.602 -30.5295 117.558 -31.9448 116.05C-33.3601 114.542 -35.2797 113.695 -37.2812 113.695C-37.8475 113.693 -38.4121 113.763 -38.9631 113.902C-40.7765 111.525 -42.4198 109.007 -43.8794 106.368C-50.5521 94.4165 -53.4084 80.4828 -52.0202 66.656C-50.632 52.8291 -45.0741 39.854 -36.1795 29.6757C-27.2849 19.4973 -15.533 12.664 -2.68521 10.2001C10.1625 7.73617 23.4139 9.7744 35.0825 16.0092C38.9342 18.0842 42.5697 20.5864 45.9285 23.4741C45.7977 24.061 45.7326 24.6624 45.7344 25.2656C45.7344 27.3977 46.5295 29.4425 47.9448 30.9501C49.3601 32.4577 51.2797 33.3047 53.2813 33.3047C53.8476 33.3067 54.4121 33.2373 54.9631 33.098C56.7765 35.4747 58.4199 37.993 59.8794 40.6317C65.4522 50.5666 68.3885 61.9267 68.375 73.5Z" fill="#DFEAF8"/>
<path d="M33.875 91.875H12.1767C11.5442 91.8751 10.9195 91.727 10.3467 91.4412C9.77398 91.1554 9.26728 90.7389 8.8625 90.2212L-10.1125 65.9662C-10.5173 65.4486 -11.024 65.0321 -11.5967 64.7463C-12.1695 64.4605 -12.7942 64.3124 -13.4267 64.3125H-24.3438V55.125H-9.11416C-8.4817 55.1249 -7.85696 55.273 -7.28422 55.5588C-6.71149 55.8446 -6.20477 56.2611 -5.8 56.7787L13.175 81.0337C13.5798 81.5514 14.0865 81.9679 14.6592 82.2537C15.232 82.5395 15.8567 82.6876 16.4892 82.6875H33.875V78.0938L44.6562 87.2812L33.875 96.4688V91.875Z" fill="#D99899"/>
<path d="M71.7129 30.1327L70.583 29.4689C70.2577 29.289 69.9915 29.0078 69.8201 28.6627C69.6487 28.3175 69.5801 27.9249 69.6235 27.5372C69.8276 26.0306 69.8276 24.5006 69.6235 22.994C69.5801 22.6063 69.6487 22.2137 69.8201 21.8686C69.9915 21.5235 70.2577 21.2422 70.583 21.0623L71.7129 20.3985C71.9318 20.2755 72.1248 20.1063 72.2803 19.9013C72.4358 19.6962 72.5504 19.4595 72.6172 19.2057C72.684 18.9518 72.7015 18.6862 72.6687 18.4249C72.636 18.1636 72.5536 17.9122 72.4266 17.6859L69.3 12.1734C69.0275 11.7126 68.5996 11.3805 68.1043 11.2455C67.6089 11.1105 67.0839 11.1829 66.6371 11.4476L65.4943 12.1183C65.1457 12.3149 64.7515 12.4012 64.3584 12.367C63.9653 12.3328 63.5895 12.1796 63.2755 11.9254C62.1495 11.0456 60.9237 10.3209 59.6271 9.7686C59.2646 9.63005 58.9496 9.37852 58.7231 9.04672C58.4966 8.71491 58.3691 8.31819 58.3571 7.90813V6.57824C58.3452 6.03989 58.1333 5.52856 57.7678 5.15649C57.4024 4.78443 56.9132 4.58203 56.4078 4.59374H50.1547C49.6508 4.58449 49.1639 4.78798 48.8003 5.15979C48.4367 5.53159 48.226 6.04152 48.2141 6.57824V7.90813C48.2021 8.31819 48.0745 8.71491 47.848 9.04672C47.6215 9.37852 47.3066 9.63005 46.944 9.7686C45.6475 10.3209 44.4216 11.0456 43.2957 11.9254C42.9816 12.1796 42.6059 12.3328 42.2127 12.367C41.8196 12.4012 41.4255 12.3149 41.0769 12.1183L39.9341 11.4476C39.4873 11.1829 38.9622 11.1105 38.4669 11.2455C37.9716 11.3805 37.5436 11.7126 37.2711 12.1734L34.1445 17.6859C34.0176 17.9122 33.9352 18.1636 33.9024 18.4249C33.8696 18.6862 33.8872 18.9518 33.954 19.2057C34.0207 19.4595 34.1354 19.6962 34.2908 19.9013C34.4463 20.1063 34.6394 20.2755 34.8583 20.3985L35.9881 21.0623C36.3135 21.2422 36.5796 21.5235 36.751 21.8686C36.9225 22.2137 36.9911 22.6063 36.9477 22.994C36.7436 24.5006 36.7436 26.0306 36.9477 27.5372C36.9911 27.9249 36.9225 28.3175 36.751 28.6627C36.5796 29.0078 36.3135 29.289 35.9881 29.4689L34.8583 30.1327C34.6394 30.2557 34.4463 30.4249 34.2908 30.63C34.1354 30.8351 34.0207 31.0717 33.954 31.3256C33.8872 31.5794 33.8696 31.845 33.9024 32.1063C33.9352 32.3676 34.0176 32.6191 34.1445 32.8453L37.2711 38.3578C37.5436 38.8186 37.9716 39.1507 38.4669 39.2857C38.9622 39.4207 39.4873 39.3484 39.9341 39.0836L41.0769 38.4129C41.4255 38.2163 41.8196 38.13 42.2127 38.1642C42.6059 38.1984 42.9816 38.3516 43.2957 38.6059C44.4216 39.4857 45.6475 40.2103 46.944 40.7626C47.3066 40.9012 47.6215 41.1527 47.848 41.4845C48.0745 41.8163 48.2021 42.213 48.2141 42.6231V43.953C48.226 44.4897 48.4367 44.9996 48.8003 45.3714C49.1639 45.7432 49.6508 45.9467 50.1547 45.9375H56.4078C56.9118 45.9467 57.3987 45.7432 57.7622 45.3714C58.1258 44.9996 58.3366 44.4897 58.3484 43.953V42.6231C58.3604 42.213 58.488 41.8163 58.7145 41.4845C58.941 41.1527 59.256 40.9012 59.6185 40.7626C60.9151 40.2103 62.1409 39.4857 63.2669 38.6059C63.5809 38.3516 63.9567 38.1984 64.3498 38.1642C64.7429 38.13 65.137 38.2163 65.4856 38.4129L66.6284 39.0836C67.0752 39.3484 67.6003 39.4207 68.0956 39.2857C68.591 39.1507 69.0189 38.8186 69.2914 38.3578L72.418 32.8453C72.5453 32.6196 72.6282 32.3687 72.6615 32.1078C72.6949 31.8469 72.6781 31.5815 72.6122 31.3277C72.5462 31.074 72.4325 30.8372 72.2779 30.6317C72.1233 30.4263 71.931 30.2565 71.7129 30.1327ZM53.2813 33.3047C51.7886 33.3047 50.3295 32.8332 49.0884 31.9499C47.8474 31.0665 46.8801 29.811 46.3089 28.342C45.7377 26.8731 45.5882 25.2567 45.8794 23.6973C46.1706 22.1378 46.8894 20.7054 47.9448 19.5811C49.0003 18.4569 50.345 17.6912 51.8089 17.381C53.2729 17.0708 54.7903 17.23 56.1693 17.8385C57.5483 18.4469 58.727 19.4773 59.5563 20.7994C60.3855 22.1214 60.8281 23.6756 60.8281 25.2656C60.8281 27.3977 60.033 29.4425 58.6177 30.9501C57.2024 32.4577 55.2828 33.3047 53.2813 33.3047Z" fill="#748CA6"/>
<path d="M25.25 64.3125H16.4892C15.8567 64.3124 15.232 64.4605 14.6592 64.7463C14.0865 65.0321 13.5798 65.4486 13.175 65.9662L-5.8 90.2212C-6.20477 90.7389 -6.71149 91.1554 -7.28422 91.4412C-7.85696 91.727 -8.4817 91.8751 -9.11416 91.875H-24.3438V82.6875H-13.4267C-12.7942 82.6876 -12.1695 82.5395 -11.5967 82.2537C-11.024 81.9679 -10.5173 81.5514 -10.1125 81.0337L8.8625 56.7787C9.26728 56.2611 9.77398 55.8446 10.3467 55.5588C10.9195 55.273 11.5442 55.1249 12.1767 55.125H25.25V50.5312L36.0312 59.7188L25.25 68.9062V64.3125Z" fill="#8FCCC0"/>
<path d="M-37.2812 144.703C-33.0166 144.703 -28.8477 143.356 -25.3018 140.832C-21.7558 138.308 -18.9921 134.721 -17.3601 130.524C-15.7281 126.327 -15.3011 121.709 -16.1331 117.253C-16.9651 112.798 -19.0187 108.705 -22.0343 105.493C-25.0498 102.281 -28.8919 100.093 -33.0746 99.207C-37.2573 98.3207 -41.5928 98.7756 -45.5329 100.514C-49.4729 102.252 -52.8405 105.196 -55.2098 108.974C-57.5791 112.751 -58.8438 117.192 -58.8438 121.734C-58.8375 127.824 -56.5637 133.662 -52.5213 137.968C-48.4789 142.274 -42.9981 144.696 -37.2812 144.703ZM-37.2812 103.359C-33.8695 103.359 -30.5344 104.437 -27.6977 106.456C-24.8609 108.475 -22.6499 111.345 -21.3443 114.703C-20.0387 118.06 -19.6971 121.755 -20.3627 125.319C-21.0283 128.884 -22.6712 132.158 -25.0837 134.727C-27.4961 137.297 -30.5698 139.047 -33.9159 139.756C-37.2621 140.465 -40.7305 140.101 -43.8825 138.711C-47.0346 137.32 -49.7286 134.965 -51.6241 131.943C-53.5196 128.921 -54.5312 125.369 -54.5312 121.734C-54.5261 116.863 -52.7071 112.192 -49.4732 108.747C-46.2393 105.303 -41.8547 103.365 -37.2812 103.359ZM31.8524 30.7643C31.7123 31.3118 31.6783 31.8839 31.7524 32.4458C31.8266 33.0077 32.0073 33.5477 32.2837 34.0328L35.4081 39.5453C35.9719 40.5104 36.8611 41.209 37.8932 41.4977C38.9253 41.7864 40.022 41.6434 40.9583 41.098L42.0041 40.464C43.2534 41.4351 44.6088 42.2411 46.0406 42.8643V43.9553C46.0542 45.104 46.4954 46.2 47.2673 47.0024C48.0391 47.8047 49.0784 48.2479 50.1568 48.2344H56.41C57.4873 48.2454 58.5247 47.8009 59.2947 46.9983C60.0648 46.1957 60.5045 45.1005 60.5176 43.953V42.8597C61.9374 42.2619 63.2652 41.4413 64.4571 40.425L65.5999 41.0957C66.5354 41.6418 67.6318 41.7854 68.6637 41.497C69.6956 41.2087 70.5845 40.5102 71.1479 39.5453L74.2767 34.0328C74.5531 33.5482 74.7339 33.0086 74.808 32.447C74.8822 31.8855 74.8481 31.3137 74.7079 30.7666C74.5681 30.2079 74.3228 29.6855 73.9868 29.2313C73.6509 28.7771 73.2315 28.4008 72.7543 28.1252L71.7948 27.5625C71.9796 26.0376 71.9796 24.4937 71.7948 22.9687L72.7543 22.4037C73.2315 22.1282 73.6509 21.7518 73.9868 21.2976C74.3228 20.8434 74.5681 20.321 74.7079 19.7623C74.8485 19.2149 74.8828 18.6427 74.8087 18.0807C74.7345 17.5187 74.5535 16.9787 74.2767 16.4939L71.1523 10.9814C70.5895 10.015 69.7003 9.31529 68.6677 9.02643C67.6352 8.73757 66.5379 8.88154 65.6021 9.42867L64.5563 10.0626C63.3069 9.09151 61.9515 8.28554 60.5198 7.66237V6.57825C60.5067 5.42952 60.066 4.33332 59.2946 3.53052C58.5231 2.72772 57.4841 2.284 56.4057 2.29687H50.1525C49.0752 2.28584 48.0378 2.73037 47.2678 3.53298C46.4977 4.33558 46.058 5.43073 46.0449 6.57825V7.67156C44.6266 8.26976 43.3002 9.09039 42.1097 10.1062L40.9669 9.43556C40.0314 8.88948 38.935 8.74586 37.9031 9.03421C36.8713 9.32257 35.9823 10.021 35.4189 10.986L32.2902 16.4985C32.0142 16.9833 31.8337 17.5229 31.7595 18.0843C31.6854 18.6458 31.7192 19.2175 31.8589 19.7646C31.9995 20.3232 32.2454 20.8455 32.5817 21.2996C32.9179 21.7537 33.3374 22.1302 33.8146 22.406L34.7742 22.971C34.5894 24.496 34.5894 26.0399 34.7742 27.5648L33.8146 28.1298C33.3369 28.4042 32.9165 28.7792 32.5792 29.2321C32.2419 29.6851 31.9946 30.2064 31.8524 30.7643ZM38.9422 25.2656C38.9422 24.6145 38.9869 23.9643 39.0759 23.3202C39.1783 22.4706 39.0368 21.608 38.67 20.8458C38.3032 20.0836 37.7283 19.4576 37.021 19.0503L36.1585 18.5496L39.0047 13.5332L40.0203 14.1281C40.7299 14.5361 41.5339 14.7201 42.3382 14.6587C43.1425 14.5973 43.9137 14.2929 44.5614 13.7812C45.5412 13.0156 46.6076 12.3843 47.7354 11.9024C48.4993 11.5956 49.1586 11.0506 49.6272 10.3384C50.0957 9.62619 50.3517 8.78003 50.3617 7.91044V6.89062H56.2008V7.90814C56.2109 8.77739 56.4667 9.62321 56.9348 10.3353C57.4029 11.0474 58.0616 11.5927 58.825 11.9001C59.9534 12.3831 61.0205 13.0151 62.0011 13.7812C62.6466 14.2919 63.4153 14.5961 64.2172 14.6584C65.0191 14.7206 65.8211 14.5383 66.5293 14.1327L67.5448 13.5378L70.3889 18.5542L69.5372 19.0549C68.8289 19.4616 68.2532 20.0879 67.8863 20.8507C67.5194 21.6135 67.3785 22.4771 67.4823 23.3271C67.5716 23.9689 67.6177 24.6168 67.6203 25.2656C67.6203 25.9167 67.5756 26.5669 67.4866 27.2111C67.3842 28.0606 67.5257 28.9233 67.8925 29.6854C68.2593 30.4476 68.8342 31.0736 69.5415 31.481L70.404 31.9817L67.5599 36.9981L66.5443 36.4032C65.8363 35.9975 65.0345 35.8149 64.2327 35.8768C63.4308 35.9386 62.662 36.2423 62.0162 36.7523C61.0364 37.518 59.97 38.1492 58.8422 38.6311C58.0783 38.9379 57.419 39.483 56.9504 40.1952C56.4819 40.9073 56.2259 41.7535 56.2159 42.6231V43.6406H50.3617V42.6231C50.3516 41.7539 50.0958 40.908 49.6277 40.1959C49.1596 39.4838 48.5009 38.9385 47.7375 38.6311C46.6091 38.1482 45.542 37.5162 44.5614 36.75C43.9159 36.2393 43.1472 35.9351 42.3453 35.8729C41.5434 35.8106 40.7414 35.993 40.0332 36.3986L39.0177 36.9935L36.1714 31.9771L37.0339 31.4764C37.7422 31.0696 38.3179 30.4434 38.6848 29.6805C39.0517 28.9177 39.1926 28.0542 39.0888 27.2042C38.9967 26.5625 38.9477 25.9147 38.9422 25.2656Z" fill="#404040"/>
<path d="M53.2813 35.6016C55.2004 35.6016 57.0764 34.9954 58.672 33.8596C60.2677 32.7239 61.5114 31.1097 62.2458 29.221C62.9802 27.3324 63.1723 25.2542 62.798 23.2492C62.4236 21.2442 61.4994 19.4025 60.1424 17.957C58.7854 16.5115 57.0565 15.5271 55.1743 15.1283C53.292 14.7295 51.3411 14.9342 49.568 15.7165C47.795 16.4988 46.2796 17.8235 45.2134 19.5233C44.1472 21.223 43.5781 23.2214 43.5781 25.2656C43.581 28.006 44.6042 30.6332 46.4233 32.5709C48.2423 34.5086 50.7087 35.5985 53.2813 35.6016ZM53.2813 19.5234C54.3474 19.5234 55.3897 19.8602 56.2761 20.4912C57.1626 21.1221 57.8536 22.0189 58.2616 23.0682C58.6696 24.1174 58.7763 25.272 58.5683 26.3859C58.3603 27.4997 57.8469 28.5229 57.093 29.326C56.3391 30.129 55.3786 30.6759 54.3329 30.8975C53.2873 31.119 52.2034 31.0053 51.2184 30.5707C50.2334 30.1361 49.3915 29.4001 48.7991 28.4558C48.2068 27.5115 47.8906 26.4013 47.8906 25.2656C47.8906 23.7427 48.4586 22.2822 49.4695 21.2053C50.4805 20.1284 51.8516 19.5234 53.2813 19.5234ZM38.6425 126.239C37.4738 127.01 36.2706 127.75 35.0372 128.434L37.0447 132.502C38.3579 131.767 39.6602 130.972 40.926 130.146L38.6425 126.239ZM64.0884 56.8178C64.4593 58.2304 64.7849 59.6774 65.0587 61.1175L69.285 60.1988C68.9917 58.6484 68.6381 57.0934 68.2435 55.5752L64.0884 56.8178ZM70.4278 69.6275C70.3437 68.0564 70.2122 66.467 70.0159 64.8959L65.7379 65.4816C65.9147 66.9447 66.0441 68.4262 66.1217 69.887L70.4278 69.6275ZM54.0036 111.516L57.4105 114.332C58.3204 113.082 59.2002 111.787 60.0196 110.477L56.4359 107.923C55.6704 109.143 54.8532 110.351 54.0036 111.516ZM58.6223 104.156L62.3677 106.43C63.0987 105.052 63.7952 103.646 64.4377 102.216L60.5565 100.233C59.9506 101.563 59.3015 102.884 58.6223 104.156ZM67.7001 93.368L63.5838 92.0013C63.1741 93.4024 62.7106 94.8058 62.206 96.1748L66.2188 97.8469C66.7621 96.3815 67.2602 94.8747 67.7001 93.368ZM42.0903 123.776L44.6175 127.497C45.812 126.578 46.9893 125.598 48.1365 124.578L45.3678 121.057C44.3027 122.005 43.2008 122.92 42.0903 123.776ZM-1.22441 134.742C-2.58716 134.512 -3.95854 134.222 -5.30188 133.889L-6.28082 138.361C-4.84044 138.722 -3.36557 139.028 -1.90363 139.28L-1.22441 134.742ZM33.0255 134.56L31.3005 130.35C30.0391 130.938 28.741 131.485 27.4429 131.976L28.8855 136.306C30.2784 135.777 31.6713 135.192 33.0255 134.56ZM7.01246 140.109L6.98443 135.516C5.61952 135.488 4.24599 135.412 2.88755 135.286L2.52315 139.857C3.96999 139.99 5.44487 140.07 6.83565 140.086L7.01246 140.109ZM15.3313 135.029C13.9685 135.212 12.5777 135.343 11.1956 135.424L11.4263 140.017C12.912 139.933 14.4062 139.788 15.8703 139.593L15.3313 135.029ZM23.4797 133.301C22.1515 133.69 20.7909 134.032 19.4389 134.321L20.282 138.825C21.7353 138.518 23.1951 138.136 24.6226 137.73L23.4797 133.301ZM48.4577 118.096L51.4506 121.399C52.5093 120.313 53.5508 119.162 54.547 117.979L51.3406 114.908C50.4113 116.011 49.441 117.083 48.4577 118.096ZM-32.5375 28.998L-35.5562 25.6997C-36.6149 26.793 -37.6543 27.9461 -38.6461 29.1267L-35.4333 32.1907C-34.4975 31.0905 -33.5315 30.0156 -32.5375 28.998ZM-38.0812 35.6016L-41.4945 32.7833C-42.4023 34.0374 -43.2799 35.3374 -44.095 36.6443L-40.5048 39.1893C-39.7458 37.9719 -38.9286 36.7615 -38.0812 35.6016ZM-26.1916 23.3018L-28.7274 19.5855C-29.9263 20.5042 -31.11 21.4987 -32.2421 22.514L-29.4648 26.0282C-28.4104 25.0842 -27.3086 24.1654 -26.1916 23.3018ZM-42.6826 42.9516L-46.4324 40.6845C-47.1655 42.0627 -47.8598 43.4821 -48.4959 44.9039L-44.6017 46.8792C-44.0109 45.5631 -43.364 44.2424 -42.6826 42.9516ZM-11.5593 15.0698L-13.0062 10.7425C-14.3969 11.2708 -15.7899 11.8611 -17.1505 12.4973L-15.4255 16.7029C-14.149 16.1103 -12.8509 15.5613 -11.5593 15.0698ZM-46.2534 50.9516L-50.2705 49.2817C-50.8074 50.7472 -51.3012 52.2677 -51.741 53.7675L-47.6312 55.125C-47.2129 53.7193 -46.7536 52.3159 -46.2534 50.9516ZM4.67293 11.5831L4.42928 6.98939C2.94577 7.07897 1.45149 7.21908 -0.0104446 7.42579L0.537243 11.9805C1.89783 11.8036 3.29078 11.6658 4.67293 11.5831ZM-19.1493 18.6277L-21.1633 14.5645C-22.4699 15.2995 -23.7702 16.0965 -25.0294 16.9326L-22.7481 20.8372C-21.5751 20.0517 -20.3654 19.3121 -19.1493 18.6277ZM22.1493 8.60409C20.7047 8.25037 19.2319 7.94489 17.77 7.70142L17.1016 12.24C18.4622 12.4697 19.8335 12.75 21.179 13.0807L22.1493 8.60409ZM-50.2187 72.4159C-50.195 70.978 -50.126 69.5356 -50.0031 68.1345L-54.2984 67.7348C-54.422 69.2431 -54.4939 70.7904 -54.514 72.3768L-52.3577 72.5169L-50.2187 72.4159ZM70.5313 74.6783V74.3728L66.2188 74.3154V74.5818C66.1929 76.0518 66.1217 77.5402 66.0032 79.0033L70.2984 79.403C70.417 77.8342 70.4946 76.2402 70.5313 74.6783ZM-3.56395 12.7063L-4.41135 8.20214C-5.86035 8.51222 -7.32013 8.8912 -8.75404 9.30923L-7.60044 13.733C-6.26788 13.3402 -4.90945 12.9957 -3.56395 12.7063ZM69.7378 84.1208L65.4813 83.3926C65.2657 84.8466 64.9919 86.3074 64.6771 87.7337L68.8753 88.7834C69.2138 87.2491 69.5027 85.6734 69.7378 84.1208ZM-48.7094 59.3972L-52.9097 58.3567C-53.2439 59.8887 -53.5307 61.4575 -53.7722 63.0217L-49.5115 63.7383C-49.2851 62.2821 -49.0177 60.8212 -48.7094 59.3972ZM-54.4364 77.2324C-54.3544 78.8081 -54.2207 80.3998 -54.0331 81.964L-49.7551 81.3852C-49.9276 79.9289 -50.0549 78.4475 -50.1303 76.9798L-54.4364 77.2324ZM-48.1229 90.0536C-48.4894 88.641 -48.8129 87.1917 -49.0845 85.7492L-53.3129 86.6519C-53.0197 88.2023 -52.6661 89.7596 -52.2801 91.2778L-48.1229 90.0536ZM12.9766 11.7141L13.3432 7.13409C11.9395 7.00776 10.5099 6.92967 9.08893 6.9044H8.89272L9.01562 11.4982C10.3511 11.5211 11.6714 11.5931 12.9766 11.7141ZM-26.5 64.3125C-26.5 64.9217 -26.2728 65.5059 -25.8684 65.9366C-25.4641 66.3674 -24.9156 66.6094 -24.3437 66.6094H-13.4288C-13.1124 66.6092 -12.7998 66.6831 -12.5132 66.826C-12.2267 66.9689 -11.9731 67.1773 -11.7706 67.4362L-7.02904 73.5L-11.7728 79.5614C-11.9751 79.8201 -12.2282 80.0283 -12.5144 80.1712C-12.8006 80.3141 -13.1127 80.3882 -13.4288 80.3883H-24.3437C-24.9156 80.3883 -25.4641 80.6303 -25.8684 81.0611C-26.2728 81.4918 -26.5 82.076 -26.5 82.6852V91.8727C-26.5 92.4819 -26.2728 93.0661 -25.8684 93.4968C-25.4641 93.9276 -24.9156 94.1696 -24.3437 94.1696H-9.11413C-8.16724 94.1691 -7.23206 93.9466 -6.37496 93.5179C-5.51786 93.0892 -4.75985 92.4648 -4.15475 91.6889L1.53127 84.4377L7.20652 91.6912C7.81162 92.4671 8.56963 93.0915 9.42673 93.5202C10.2838 93.9489 11.219 94.1714 12.1659 94.1719H31.7188V96.4688C31.7186 96.9016 31.8333 97.3256 32.0495 97.692C32.2657 98.0584 32.5748 98.3523 32.941 98.5398C33.3072 98.7273 33.7157 98.8007 34.1194 98.7517C34.523 98.7026 34.9055 98.5331 35.2227 98.2626L46.0039 89.0751C46.2565 88.8599 46.4605 88.587 46.6006 88.2764C46.7408 87.9659 46.8135 87.6258 46.8135 87.2812C46.8135 86.9367 46.7408 86.5966 46.6006 86.286C46.4605 85.9755 46.2565 85.7026 46.0039 85.4874L35.2227 76.2999C34.9055 76.0294 34.523 75.8598 34.1194 75.8108C33.7157 75.7618 33.3072 75.8352 32.941 76.0227C32.5748 76.2102 32.2657 76.5041 32.0495 76.8705C31.8333 77.2369 31.7186 77.6609 31.7188 78.0938V80.3906H16.4892C16.1731 80.3905 15.861 80.3164 15.5748 80.1735C15.2886 80.0306 15.0354 79.8224 14.8332 79.5637L10.0916 73.5L14.8353 67.4385C15.0376 67.1799 15.2908 66.9717 15.577 66.8288C15.8631 66.6859 16.1753 66.6118 16.4913 66.6117H23.0938V68.9085C23.0936 69.3413 23.2083 69.7654 23.4245 70.1318C23.6407 70.4982 23.9498 70.7921 24.316 70.9796C24.6822 71.1671 25.0907 71.2405 25.4944 71.1915C25.898 71.1424 26.2805 70.9729 26.5977 70.7024L37.3789 61.5149C37.6315 61.2997 37.8355 61.0268 37.9756 60.7162C38.1158 60.4057 38.1885 60.0656 38.1885 59.721C38.1885 59.3765 38.1158 59.0364 37.9756 58.7258C37.8355 58.4153 37.6315 58.1424 37.3789 57.9272L26.5977 48.7397C26.2807 48.4693 25.8984 48.2998 25.4949 48.2507C25.0914 48.2015 24.6831 48.2748 24.3169 48.462C23.9508 48.6492 23.6418 48.9427 23.4254 49.3088C23.209 49.6749 23.094 50.0986 23.0938 50.5312V52.8281H12.1767C11.2298 52.8286 10.2946 53.0511 9.4375 53.4798C8.5804 53.9085 7.8224 54.5329 7.2173 55.3087L1.53127 62.5623L-4.14397 55.3087C-4.74907 54.5329 -5.50707 53.9085 -6.36417 53.4798C-7.22128 53.0511 -8.15646 52.8286 -9.10335 52.8281H-24.3437C-24.9156 52.8281 -25.4641 53.0701 -25.8684 53.5009C-26.2728 53.9316 -26.5 54.5158 -26.5 55.125V64.3125ZM11.519 82.5037C12.1243 83.2793 12.8824 83.9036 13.7394 84.3323C14.5965 84.761 15.5316 84.9836 16.4784 84.9844H33.875C34.4189 84.9861 34.9433 84.7689 35.3432 84.3762C35.7431 83.9834 35.9889 83.4443 36.0313 82.8667L41.2063 87.2812L36.0313 91.6958C35.9889 91.1182 35.7431 90.579 35.3432 90.1863C34.9433 89.7936 34.4189 89.5764 33.875 89.5781H12.1767C11.8606 89.578 11.5485 89.5039 11.2623 89.361C10.9761 89.2181 10.7229 89.0099 10.5207 88.7512L4.3344 80.85L7.27984 77.0854L11.519 82.5037ZM10.5207 58.2487C10.7229 57.9901 10.9761 57.7819 11.2623 57.639C11.5485 57.4961 11.8606 57.422 12.1767 57.4219H25.25C25.7939 57.4236 26.3183 57.2064 26.7182 56.8137C27.1181 56.4209 27.3639 55.8818 27.4063 55.3041L32.5813 59.7187L27.4063 64.1333C27.3639 63.5557 27.1181 63.0166 26.7182 62.6238C26.3183 62.2311 25.7939 62.0139 25.25 62.0156H16.4892C15.5423 62.0161 14.6071 62.2386 13.75 62.6673C12.8929 63.096 12.1349 63.7204 11.5298 64.4962L-7.44519 88.7512C-7.64746 89.0099 -7.90065 89.2181 -8.18682 89.361C-8.47299 89.5039 -8.78514 89.578 -9.10119 89.5781H-22.1875V84.9844H-13.4266C-12.4797 84.9839 -11.5446 84.7614 -10.6875 84.3327C-9.83036 83.904 -9.07235 83.2796 -8.46725 82.5037L10.5207 58.2487ZM-22.1875 57.4219H-9.11413C-8.79808 57.422 -8.48592 57.4961 -8.19976 57.639C-7.91359 57.7819 -7.6604 57.9901 -7.45813 58.2487L-1.27185 66.15L-4.21729 69.9146L-8.45647 64.4962C-9.06316 63.7189 -9.82329 63.0936 -10.6827 62.6648C-11.5422 62.236 -12.4798 62.0144 -13.4288 62.0156H-22.1875V57.4219Z" fill="#404040"/>
</g>
<defs>
<filter id="filter0_d_19_251" x="138" y="133" width="146" height="155" filterUnits="userSpaceOnUse" color-interpolation-filters="sRGB">
<feFlood flood-opacity="0" result="BackgroundImageFix"/>
<feColorMatrix in="SourceAlpha" type="matrix" values="0 0 0 0 0 0 0 0 0 0 0 0 0 0 0 0 0 0 127 0" result="hardAlpha"/>
<feOffset dy="4"/>
<feGaussianBlur stdDeviation="2"/>
<feComposite in2="hardAlpha" operator="out"/>
<feColorMatrix type="matrix" values="0 0 0 0 0 0 0 0 0 0 0 0 0 0 0 0 0 0 0.25 0"/>
<feBlend mode="normal" in2="BackgroundImageFix" result="effect1_dropShadow_19_251"/>
<feBlend mode="normal" in="SourceGraphic" in2="effect1_dropShadow_19_251" result="shape"/>
</filter>
<filter id="filter1_d_19_251" x="285" y="351" width="146" height="155" filterUnits="userSpaceOnUse" color-interpolation-filters="sRGB">
<feFlood flood-opacity="0" result="BackgroundImageFix"/>
<feColorMatrix in="SourceAlpha" type="matrix" values="0 0 0 0 0 0 0 0 0 0 0 0 0 0 0 0 0 0 127 0" result="hardAlpha"/>
<feOffset dy="4"/>
<feGaussianBlur stdDeviation="2"/>
<feComposite in2="hardAlpha" operator="out"/>
<feColorMatrix type="matrix" values="0 0 0 0 0 0 0 0 0 0 0 0 0 0 0 0 0 0 0.25 0"/>
<feBlend mode="normal" in2="BackgroundImageFix" result="effect1_dropShadow_19_251"/>
<feBlend mode="normal" in="SourceGraphic" in2="effect1_dropShadow_19_251" result="shape"/>
</filter>
<filter id="filter2_d_19_251" x="-65" y="0" width="146" height="155" filterUnits="userSpaceOnUse" color-interpolation-filters="sRGB">
<feFlood flood-opacity="0" result="BackgroundImageFix"/>
<feColorMatrix in="SourceAlpha" type="matrix" values="0 0 0 0 0 0 0 0 0 0 0 0 0 0 0 0 0 0 127 0" result="hardAlpha"/>
<feOffset dy="4"/>
<feGaussianBlur stdDeviation="2"/>
<feComposite in2="hardAlpha" operator="out"/>
<feColorMatrix type="matrix" values="0 0 0 0 0 0 0 0 0 0 0 0 0 0 0 0 0 0 0.25 0"/>
<feBlend mode="normal" in2="BackgroundImageFix" result="effect1_dropShadow_19_251"/>
<feBlend mode="normal" in="SourceGraphic" in2="effect1_dropShadow_19_251" result="shape"/>
</filter>
</defs>
</svg>
